<svg id="visual" viewBox="0 0 2480 3507" width="2480" height="3507" xmlns="http://www.w3.org/2000/svg" xmlns:xlink="http://www.w3.org/1999/xlink" version="1.1"><g stroke-width="1" stroke-linejoin="bevel"><path d="M1243 1760.5L1244 1888.4L1377.8 1756.5Z" fill="#453b1a" stroke="#453b1a"></path><path d="M1244 1888.4L1381.8 1894.4L1377.8 1756.5Z" fill="#645317" stroke="#645317"></path><path d="M1094.2 1890.4L1237 2018.3L1244 1888.4Z" fill="#7c6811" stroke="#7c6811"></path><path d="M1244 1888.4L1237 2018.3L1381.8 1894.4Z" fill="#6c5b16" stroke="#6c5b16"></path><path d="M1513.6 1880.4L1508.6 1752.5L1377.8 1756.5Z" fill="#736113" stroke="#736113"></path><path d="M1377.8 1756.5L1233 1625.6L1243 1760.5Z" fill="#352f1a" stroke="#352f1a"></path><path d="M1508.6 2023.3L1513.6 1880.4L1381.8 1894.4Z" fill="#7c6811" stroke="#7c6811"></path><path d="M1381.8 1894.4L1513.6 1880.4L1377.8 1756.5Z" fill="#352f1a" stroke="#352f1a"></path><path d="M1380.8 1620.6L1233 1625.6L1377.8 1756.5Z" fill="#856f0d" stroke="#856f0d"></path><path d="M1243 1760.5L1094.2 1890.4L1244 1888.4Z" fill="#6c5b16" stroke="#6c5b16"></path><path d="M1508.6 1752.5L1380.8 1620.6L1377.8 1756.5Z" fill="#856f0d" stroke="#856f0d"></path><path d="M1237 2018.3L1380.8 2028.3L1381.8 1894.4Z" fill="#856f0d" stroke="#856f0d"></path><path d="M1233 1625.6L1095.2 1754.5L1243 1760.5Z" fill="#856f0d" stroke="#856f0d"></path><path d="M1095.2 1754.5L1094.2 1890.4L1243 1760.5Z" fill="#856f0d" stroke="#856f0d"></path><path d="M1380.8 2028.3L1508.6 2023.3L1381.8 1894.4Z" fill="#352f1a" stroke="#352f1a"></path><path d="M1647.3 1744.5L1523.6 1625.6L1508.6 1752.5Z" fill="#3d341a" stroke="#3d341a"></path><path d="M1508.6 1752.5L1523.6 1625.6L1380.8 1620.6Z" fill="#3d341a" stroke="#3d341a"></path><path d="M1647.3 1744.5L1508.6 1752.5L1513.6 1880.4Z" fill="#453b1a" stroke="#453b1a"></path><path d="M1094.2 1890.4L1104.2 2027.3L1237 2018.3Z" fill="#352f1a" stroke="#352f1a"></path><path d="M1237 2018.3L1242 2156.2L1380.8 2028.3Z" fill="#736113" stroke="#736113"></path><path d="M1247 1491.7L1094.2 1613.6L1233 1625.6Z" fill="#352f1a" stroke="#352f1a"></path><path d="M1233 1625.6L1094.2 1613.6L1095.2 1754.5Z" fill="#3d341a" stroke="#3d341a"></path><path d="M1095.2 1754.5L965.4 1760.5L1094.2 1890.4Z" fill="#645317" stroke="#645317"></path><path d="M1379.8 1478.7L1247 1491.7L1380.8 1620.6Z" fill="#352f1a" stroke="#352f1a"></path><path d="M1380.8 1620.6L1247 1491.7L1233 1625.6Z" fill="#534719" stroke="#534719"></path><path d="M1508.6 2023.3L1644.3 1892.4L1513.6 1880.4Z" fill="#352f1a" stroke="#352f1a"></path><path d="M1104.2 2027.3L1242 2156.2L1237 2018.3Z" fill="#4d421a" stroke="#4d421a"></path><path d="M1380.8 2028.3L1520.6 2152.2L1508.6 2023.3Z" fill="#352f1a" stroke="#352f1a"></path><path d="M1644.3 1892.4L1647.3 1744.5L1513.6 1880.4Z" fill="#534719" stroke="#534719"></path><path d="M1242 2156.2L1379.8 2165.2L1380.8 2028.3Z" fill="#453b1a" stroke="#453b1a"></path><path d="M1508.6 2023.3L1658.3 2022.3L1644.3 1892.4Z" fill="#453b1a" stroke="#453b1a"></path><path d="M1523.6 1489.7L1380.8 1620.6L1523.6 1625.6Z" fill="#4d421a" stroke="#4d421a"></path><path d="M1523.6 1489.7L1379.8 1478.7L1380.8 1620.6Z" fill="#6c5b16" stroke="#6c5b16"></path><path d="M965.4 1618.6L965.4 1760.5L1095.2 1754.5Z" fill="#7c6811" stroke="#7c6811"></path><path d="M1094.2 1890.4L968.4 2028.3L1104.2 2027.3Z" fill="#645317" stroke="#645317"></path><path d="M965.4 1760.5L961.4 1884.4L1094.2 1890.4Z" fill="#856f0d" stroke="#856f0d"></path><path d="M1379.8 2165.2L1520.6 2152.2L1380.8 2028.3Z" fill="#352f1a" stroke="#352f1a"></path><path d="M1661.3 1619.6L1523.6 1489.7L1523.6 1625.6Z" fill="#5c4e18" stroke="#5c4e18"></path><path d="M1520.6 2152.2L1658.3 2022.3L1508.6 2023.3Z" fill="#6c5b16" stroke="#6c5b16"></path><path d="M1644.3 1892.4L1782.1 1758.5L1647.3 1744.5Z" fill="#3d341a" stroke="#3d341a"></path><path d="M961.4 1884.4L968.4 2028.3L1094.2 1890.4Z" fill="#352f1a" stroke="#352f1a"></path><path d="M1104.2 2027.3L1096.2 2164.2L1242 2156.2Z" fill="#453b1a" stroke="#453b1a"></path><path d="M968.4 2028.3L1096.2 2164.2L1104.2 2027.3Z" fill="#856f0d" stroke="#856f0d"></path><path d="M1242 2156.2L1371.8 2291L1379.8 2165.2Z" fill="#5c4e18" stroke="#5c4e18"></path><path d="M961.4 1484.7L965.4 1618.6L1094.2 1613.6Z" fill="#856f0d" stroke="#856f0d"></path><path d="M1094.2 1613.6L965.4 1618.6L1095.2 1754.5Z" fill="#6c5b16" stroke="#6c5b16"></path><path d="M965.4 1760.5L830.7 1746.5L961.4 1884.4Z" fill="#453b1a" stroke="#453b1a"></path><path d="M1782.1 1758.5L1661.3 1619.6L1647.3 1744.5Z" fill="#3d341a" stroke="#3d341a"></path><path d="M1647.3 1744.5L1661.3 1619.6L1523.6 1625.6Z" fill="#534719" stroke="#534719"></path><path d="M1244 1345.8L1100.2 1474.7L1247 1491.7Z" fill="#3d341a" stroke="#3d341a"></path><path d="M1247 1491.7L1100.2 1474.7L1094.2 1613.6Z" fill="#645317" stroke="#645317"></path><path d="M1233 2301L1371.8 2291L1242 2156.2Z" fill="#856f0d" stroke="#856f0d"></path><path d="M1379.8 2165.2L1517.6 2293L1520.6 2152.2Z" fill="#352f1a" stroke="#352f1a"></path><path d="M1793.1 1882.4L1782.1 1758.5L1644.3 1892.4Z" fill="#5c4e18" stroke="#5c4e18"></path><path d="M833.7 2156.2L969.4 2158.2L968.4 2028.3Z" fill="#7c6811" stroke="#7c6811"></path><path d="M968.4 2028.3L969.4 2158.2L1096.2 2164.2Z" fill="#3d341a" stroke="#3d341a"></path><path d="M1096.2 2164.2L1233 2301L1242 2156.2Z" fill="#6c5b16" stroke="#6c5b16"></path><path d="M1523.6 1341.8L1380.8 1348.8L1379.8 1478.7Z" fill="#856f0d" stroke="#856f0d"></path><path d="M1379.8 1478.7L1244 1345.8L1247 1491.7Z" fill="#7c6811" stroke="#7c6811"></path><path d="M1523.6 1341.8L1379.8 1478.7L1523.6 1489.7Z" fill="#534719" stroke="#534719"></path><path d="M1652.3 2297L1661.3 2157.2L1520.6 2152.2Z" fill="#534719" stroke="#534719"></path><path d="M1520.6 2152.2L1661.3 2157.2L1658.3 2022.3Z" fill="#7c6811" stroke="#7c6811"></path><path d="M1658.3 2022.3L1793.1 1882.4L1644.3 1892.4Z" fill="#6c5b16" stroke="#6c5b16"></path><path d="M1380.8 1348.8L1244 1345.8L1379.8 1478.7Z" fill="#352f1a" stroke="#352f1a"></path><path d="M1796.1 1490.7L1650.3 1478.7L1661.3 1619.6Z" fill="#453b1a" stroke="#453b1a"></path><path d="M1661.3 1619.6L1650.3 1478.7L1523.6 1489.7Z" fill="#534719" stroke="#534719"></path><path d="M1100.2 2292L1233 2301L1096.2 2164.2Z" fill="#534719" stroke="#534719"></path><path d="M1788.1 2027.3L1793.1 1882.4L1658.3 2022.3Z" fill="#4d421a" stroke="#4d421a"></path><path d="M821.7 1616.6L830.7 1746.5L965.4 1618.6Z" fill="#5c4e18" stroke="#5c4e18"></path><path d="M965.4 1618.6L830.7 1746.5L965.4 1760.5Z" fill="#3d341a" stroke="#3d341a"></path><path d="M961.4 1884.4L825.7 1890.4L968.4 2028.3Z" fill="#645317" stroke="#645317"></path><path d="M1095.2 1349.8L961.4 1484.7L1100.2 1474.7Z" fill="#352f1a" stroke="#352f1a"></path><path d="M1100.2 1474.7L961.4 1484.7L1094.2 1613.6Z" fill="#736113" stroke="#736113"></path><path d="M830.7 1746.5L825.7 1890.4L961.4 1884.4Z" fill="#645317" stroke="#645317"></path><path d="M1380.8 2423.9L1517.6 2293L1371.8 2291Z" fill="#6c5b16" stroke="#6c5b16"></path><path d="M1371.8 2291L1517.6 2293L1379.8 2165.2Z" fill="#534719" stroke="#534719"></path><path d="M956.4 2288L1100.2 2292L1096.2 2164.2Z" fill="#3d341a" stroke="#3d341a"></path><path d="M1661.3 2157.2L1788.1 2027.3L1658.3 2022.3Z" fill="#453b1a" stroke="#453b1a"></path><path d="M1244 1345.8L1095.2 1349.8L1100.2 1474.7Z" fill="#736113" stroke="#736113"></path><path d="M1925.9 1626.6L1792.1 1613.6L1782.1 1758.5Z" fill="#453b1a" stroke="#453b1a"></path><path d="M1782.1 1758.5L1792.1 1613.6L1661.3 1619.6Z" fill="#453b1a" stroke="#453b1a"></path><path d="M1645.3 1354.8L1523.6 1489.7L1650.3 1478.7Z" fill="#645317" stroke="#645317"></path><path d="M1645.3 1354.8L1523.6 1341.8L1523.6 1489.7Z" fill="#3d341a" stroke="#3d341a"></path><path d="M1369.8 1209L1246 1212L1244 1345.8Z" fill="#453b1a" stroke="#453b1a"></path><path d="M825.7 1890.4L822.7 2031.3L968.4 2028.3Z" fill="#7c6811" stroke="#7c6811"></path><path d="M969.4 2158.2L956.4 2288L1096.2 2164.2Z" fill="#6c5b16" stroke="#6c5b16"></path><path d="M820.7 1484.7L821.7 1616.6L961.4 1484.7Z" fill="#453b1a" stroke="#453b1a"></path><path d="M961.4 1484.7L821.7 1616.6L965.4 1618.6Z" fill="#736113" stroke="#736113"></path><path d="M830.7 1746.5L696.9 1753.5L825.7 1890.4Z" fill="#7c6811" stroke="#7c6811"></path><path d="M825.7 1890.4L687.9 2030.3L822.7 2031.3Z" fill="#645317" stroke="#645317"></path><path d="M1792.1 1342.8L1645.3 1354.8L1650.3 1478.7Z" fill="#6c5b16" stroke="#6c5b16"></path><path d="M1661.3 2157.2L1789.1 2155.2L1788.1 2027.3Z" fill="#453b1a" stroke="#453b1a"></path><path d="M1929.9 2016.3L1930.9 1887.4L1793.1 1882.4Z" fill="#5c4e18" stroke="#5c4e18"></path><path d="M1790.1 2293L1789.1 2155.2L1661.3 2157.2Z" fill="#352f1a" stroke="#352f1a"></path><path d="M1649.3 2423.9L1652.3 2297L1517.6 2293Z" fill="#453b1a" stroke="#453b1a"></path><path d="M1517.6 2293L1652.3 2297L1520.6 2152.2Z" fill="#645317" stroke="#645317"></path><path d="M822.7 2031.3L833.7 2156.2L968.4 2028.3Z" fill="#7c6811" stroke="#7c6811"></path><path d="M833.7 2156.2L956.4 2288L969.4 2158.2Z" fill="#453b1a" stroke="#453b1a"></path><path d="M1102.2 2422.9L1245 2418.9L1233 2301Z" fill="#7c6811" stroke="#7c6811"></path><path d="M1925.9 1626.6L1796.1 1490.7L1792.1 1613.6Z" fill="#856f0d" stroke="#856f0d"></path><path d="M1792.1 1613.6L1796.1 1490.7L1661.3 1619.6Z" fill="#4d421a" stroke="#4d421a"></path><path d="M962.4 1206L955.4 1345.8L1095.2 1349.8Z" fill="#352f1a" stroke="#352f1a"></path><path d="M1095.2 1349.8L955.4 1345.8L961.4 1484.7Z" fill="#645317" stroke="#645317"></path><path d="M1105.2 1219L1095.2 1349.8L1244 1345.8Z" fill="#6c5b16" stroke="#6c5b16"></path><path d="M955.4 1345.8L820.7 1484.7L961.4 1484.7Z" fill="#3d341a" stroke="#3d341a"></path><path d="M821.7 1616.6L696.9 1753.5L830.7 1746.5Z" fill="#856f0d" stroke="#856f0d"></path><path d="M1102.2 2422.9L1233 2301L1100.2 2292Z" fill="#453b1a" stroke="#453b1a"></path><path d="M1233 2301L1245 2418.9L1371.8 2291Z" fill="#534719" stroke="#534719"></path><path d="M1245 2418.9L1380.8 2423.9L1371.8 2291Z" fill="#3d341a" stroke="#3d341a"></path><path d="M1369.8 1209L1380.8 1348.8L1512.6 1218Z" fill="#6c5b16" stroke="#6c5b16"></path><path d="M1369.8 1209L1244 1345.8L1380.8 1348.8Z" fill="#5c4e18" stroke="#5c4e18"></path><path d="M1512.6 1218L1380.8 1348.8L1523.6 1341.8Z" fill="#5c4e18" stroke="#5c4e18"></path><path d="M679.9 1624.6L696.9 1753.5L821.7 1616.6Z" fill="#534719" stroke="#534719"></path><path d="M822.7 2031.3L692.9 2164.2L833.7 2156.2Z" fill="#6c5b16" stroke="#6c5b16"></path><path d="M1929.9 2016.3L1793.1 1882.4L1788.1 2027.3Z" fill="#856f0d" stroke="#856f0d"></path><path d="M1793.1 1882.4L1930.9 1751.5L1782.1 1758.5Z" fill="#534719" stroke="#534719"></path><path d="M1930.9 1887.4L1930.9 1751.5L1793.1 1882.4Z" fill="#7c6811" stroke="#7c6811"></path><path d="M696.9 1753.5L681.9 1893.4L825.7 1890.4Z" fill="#4d421a" stroke="#4d421a"></path><path d="M963.4 2427.9L1102.2 2422.9L1100.2 2292Z" fill="#736113" stroke="#736113"></path><path d="M1245 2418.9L1245 2558.8L1380.8 2423.9Z" fill="#736113" stroke="#736113"></path><path d="M1378.8 2564.8L1508.6 2428.9L1380.8 2423.9Z" fill="#645317" stroke="#645317"></path><path d="M1380.8 2423.9L1508.6 2428.9L1517.6 2293Z" fill="#453b1a" stroke="#453b1a"></path><path d="M1657.3 1209L1523.6 1341.8L1645.3 1354.8Z" fill="#4d421a" stroke="#4d421a"></path><path d="M1657.3 1209L1512.6 1218L1523.6 1341.8Z" fill="#6c5b16" stroke="#6c5b16"></path><path d="M1246 1212L1105.2 1219L1244 1345.8Z" fill="#645317" stroke="#645317"></path><path d="M1930.9 1751.5L1925.9 1626.6L1782.1 1758.5Z" fill="#453b1a" stroke="#453b1a"></path><path d="M1789.1 2155.2L1929.9 2016.3L1788.1 2027.3Z" fill="#4d421a" stroke="#4d421a"></path><path d="M1936.9 2161.2L1929.9 2016.3L1789.1 2155.2Z" fill="#856f0d" stroke="#856f0d"></path><path d="M681.9 1893.4L687.9 2030.3L825.7 1890.4Z" fill="#4d421a" stroke="#4d421a"></path><path d="M833.7 2156.2L826.7 2296L956.4 2288Z" fill="#7c6811" stroke="#7c6811"></path><path d="M684.9 1484.7L821.7 1616.6L820.7 1484.7Z" fill="#4d421a" stroke="#4d421a"></path><path d="M684.9 1484.7L679.9 1624.6L821.7 1616.6Z" fill="#352f1a" stroke="#352f1a"></path><path d="M696.9 1753.5L558.1 1880.4L681.9 1893.4Z" fill="#856f0d" stroke="#856f0d"></path><path d="M1786.1 2422.9L1790.1 2293L1652.3 2297Z" fill="#534719" stroke="#534719"></path><path d="M1652.3 2297L1790.1 2293L1661.3 2157.2Z" fill="#7c6811" stroke="#7c6811"></path><path d="M692.9 2164.2L826.7 2296L833.7 2156.2Z" fill="#534719" stroke="#534719"></path><path d="M956.4 2288L963.4 2427.9L1100.2 2292Z" fill="#534719" stroke="#534719"></path><path d="M1919.9 1351.8L1792.1 1342.8L1796.1 1490.7Z" fill="#352f1a" stroke="#352f1a"></path><path d="M1796.1 1490.7L1792.1 1342.8L1650.3 1478.7Z" fill="#645317" stroke="#645317"></path><path d="M823.7 1220L817.7 1349.8L955.4 1345.8Z" fill="#4d421a" stroke="#4d421a"></path><path d="M955.4 1345.8L817.7 1349.8L820.7 1484.7Z" fill="#856f0d" stroke="#856f0d"></path><path d="M1508.6 2428.9L1649.3 2423.9L1517.6 2293Z" fill="#3d341a" stroke="#3d341a"></path><path d="M826.7 2424.9L963.4 2427.9L956.4 2288Z" fill="#4d421a" stroke="#4d421a"></path><path d="M1107.2 2557.8L1245 2558.8L1245 2418.9Z" fill="#4d421a" stroke="#4d421a"></path><path d="M1792.1 1342.8L1657.3 1209L1645.3 1354.8Z" fill="#5c4e18" stroke="#5c4e18"></path><path d="M1379.8 1073.1L1238 1087.1L1369.8 1209Z" fill="#5c4e18" stroke="#5c4e18"></path><path d="M2063.7 1488.7L1929.9 1480.7L1925.9 1626.6Z" fill="#352f1a" stroke="#352f1a"></path><path d="M1925.9 1626.6L1929.9 1480.7L1796.1 1490.7Z" fill="#3d341a" stroke="#3d341a"></path><path d="M687.9 2030.3L692.9 2164.2L822.7 2031.3Z" fill="#6c5b16" stroke="#6c5b16"></path><path d="M552.1 2165.2L692.9 2164.2L687.9 2030.3Z" fill="#4d421a" stroke="#4d421a"></path><path d="M1922.9 2285L1789.1 2155.2L1790.1 2293Z" fill="#5c4e18" stroke="#5c4e18"></path><path d="M1922.9 2285L1936.9 2161.2L1789.1 2155.2Z" fill="#5c4e18" stroke="#5c4e18"></path><path d="M2066.7 1887.4L2060.7 1758.5L1930.9 1887.4Z" fill="#453b1a" stroke="#453b1a"></path><path d="M1930.9 1887.4L2060.7 1758.5L1930.9 1751.5Z" fill="#856f0d" stroke="#856f0d"></path><path d="M1930.9 1751.5L2063.7 1623.6L1925.9 1626.6Z" fill="#736113" stroke="#736113"></path><path d="M1106.2 1087.1L962.4 1206L1105.2 1219Z" fill="#3d341a" stroke="#3d341a"></path><path d="M1105.2 1219L962.4 1206L1095.2 1349.8Z" fill="#4d421a" stroke="#4d421a"></path><path d="M1238 1087.1L1105.2 1219L1246 1212Z" fill="#453b1a" stroke="#453b1a"></path><path d="M1238 1087.1L1246 1212L1369.8 1209Z" fill="#352f1a" stroke="#352f1a"></path><path d="M687.9 1355.8L684.9 1484.7L820.7 1484.7Z" fill="#736113" stroke="#736113"></path><path d="M1107.2 2557.8L1245 2418.9L1102.2 2422.9Z" fill="#736113" stroke="#736113"></path><path d="M1508.6 2428.9L1650.3 2554.8L1649.3 2423.9Z" fill="#3d341a" stroke="#3d341a"></path><path d="M1379.8 1073.1L1369.8 1209L1506.6 1087.1Z" fill="#352f1a" stroke="#352f1a"></path><path d="M1245 2558.8L1378.8 2564.8L1380.8 2423.9Z" fill="#4d421a" stroke="#4d421a"></path><path d="M2066.7 1887.4L1930.9 1887.4L1929.9 2016.3Z" fill="#736113" stroke="#736113"></path><path d="M1506.6 1087.1L1369.8 1209L1512.6 1218Z" fill="#736113" stroke="#736113"></path><path d="M542.1 1758.5L558.1 1880.4L696.9 1753.5Z" fill="#856f0d" stroke="#856f0d"></path><path d="M681.9 1893.4L545.1 2021.3L687.9 2030.3Z" fill="#6c5b16" stroke="#6c5b16"></path><path d="M542.1 1758.5L696.9 1753.5L679.9 1624.6Z" fill="#453b1a" stroke="#453b1a"></path><path d="M2074.7 2018.3L2066.7 1887.4L1929.9 2016.3Z" fill="#5c4e18" stroke="#5c4e18"></path><path d="M1657.3 1209L1506.6 1087.1L1512.6 1218Z" fill="#7c6811" stroke="#7c6811"></path><path d="M963.4 2427.9L1107.2 2557.8L1102.2 2422.9Z" fill="#4d421a" stroke="#4d421a"></path><path d="M1245 2558.8L1240 2693.7L1378.8 2564.8Z" fill="#352f1a" stroke="#352f1a"></path><path d="M1650.3 2554.8L1786.1 2422.9L1649.3 2423.9Z" fill="#856f0d" stroke="#856f0d"></path><path d="M1649.3 2423.9L1786.1 2422.9L1652.3 2297Z" fill="#736113" stroke="#736113"></path><path d="M1099.2 945.2L1106.2 1087.1L1238 1087.1Z" fill="#4d421a" stroke="#4d421a"></path><path d="M1238 1087.1L1106.2 1087.1L1105.2 1219Z" fill="#453b1a" stroke="#453b1a"></path><path d="M1786.1 2422.9L1922.9 2285L1790.1 2293Z" fill="#5c4e18" stroke="#5c4e18"></path><path d="M2059.7 2164.2L2074.7 2018.3L1929.9 2016.3Z" fill="#5c4e18" stroke="#5c4e18"></path><path d="M1929.9 1480.7L1919.9 1351.8L1796.1 1490.7Z" fill="#534719" stroke="#534719"></path><path d="M1792.1 1342.8L1794.1 1212L1657.3 1209Z" fill="#534719" stroke="#534719"></path><path d="M1657.3 1209L1653.3 1082.1L1506.6 1087.1Z" fill="#645317" stroke="#645317"></path><path d="M2071.7 1347.8L1919.9 1351.8L1929.9 1480.7Z" fill="#645317" stroke="#645317"></path><path d="M826.7 2296L826.7 2424.9L956.4 2288Z" fill="#5c4e18" stroke="#5c4e18"></path><path d="M963.4 2427.9L963.4 2570.8L1107.2 2557.8Z" fill="#4d421a" stroke="#4d421a"></path><path d="M694.9 2428.9L826.7 2424.9L826.7 2296Z" fill="#3d341a" stroke="#3d341a"></path><path d="M1378.8 2564.8L1521.6 2567.8L1508.6 2428.9Z" fill="#7c6811" stroke="#7c6811"></path><path d="M550.1 1620.6L542.1 1758.5L679.9 1624.6Z" fill="#6c5b16" stroke="#6c5b16"></path><path d="M827.7 1087.1L823.7 1220L962.4 1206Z" fill="#736113" stroke="#736113"></path><path d="M962.4 1206L823.7 1220L955.4 1345.8Z" fill="#3d341a" stroke="#3d341a"></path><path d="M817.7 1349.8L687.9 1355.8L820.7 1484.7Z" fill="#5c4e18" stroke="#5c4e18"></path><path d="M2210.4 1755.5L2063.7 1623.6L2060.7 1758.5Z" fill="#5c4e18" stroke="#5c4e18"></path><path d="M2060.7 1758.5L2063.7 1623.6L1930.9 1751.5Z" fill="#534719" stroke="#534719"></path><path d="M1931.9 1218L1794.1 1212L1792.1 1342.8Z" fill="#7c6811" stroke="#7c6811"></path><path d="M686.9 1214L687.9 1355.8L817.7 1349.8Z" fill="#3d341a" stroke="#3d341a"></path><path d="M684.9 1484.7L550.1 1620.6L679.9 1624.6Z" fill="#5c4e18" stroke="#5c4e18"></path><path d="M558.1 2288L683.9 2297L692.9 2164.2Z" fill="#4d421a" stroke="#4d421a"></path><path d="M692.9 2164.2L683.9 2297L826.7 2296Z" fill="#352f1a" stroke="#352f1a"></path><path d="M2059.7 2164.2L1929.9 2016.3L1936.9 2161.2Z" fill="#7c6811" stroke="#7c6811"></path><path d="M2066.7 1887.4L2210.4 1883.4L2060.7 1758.5Z" fill="#645317" stroke="#645317"></path><path d="M553.1 1476.7L550.1 1620.6L684.9 1484.7Z" fill="#5c4e18" stroke="#5c4e18"></path><path d="M407.3 1892.4L545.1 2021.3L558.1 1880.4Z" fill="#4d421a" stroke="#4d421a"></path><path d="M558.1 1880.4L545.1 2021.3L681.9 1893.4Z" fill="#7c6811" stroke="#7c6811"></path><path d="M1521.6 2567.8L1650.3 2554.8L1508.6 2428.9Z" fill="#6c5b16" stroke="#6c5b16"></path><path d="M1789.1 1078.1L1653.3 1082.1L1657.3 1209Z" fill="#6c5b16" stroke="#6c5b16"></path><path d="M1506.6 1087.1L1384.8 944.2L1379.8 1073.1Z" fill="#736113" stroke="#736113"></path><path d="M2072.7 2297L2059.7 2164.2L1922.9 2285Z" fill="#453b1a" stroke="#453b1a"></path><path d="M1922.9 2285L2059.7 2164.2L1936.9 2161.2Z" fill="#3d341a" stroke="#3d341a"></path><path d="M1936.9 2428.9L1922.9 2285L1786.1 2422.9Z" fill="#736113" stroke="#736113"></path><path d="M2071.7 1347.8L2063.7 1488.7L2195.4 1479.7Z" fill="#534719" stroke="#534719"></path><path d="M2063.7 1623.6L2063.7 1488.7L1925.9 1626.6Z" fill="#6c5b16" stroke="#6c5b16"></path><path d="M1919.9 1351.8L1931.9 1218L1792.1 1342.8Z" fill="#3d341a" stroke="#3d341a"></path><path d="M832.7 2561.8L963.4 2427.9L826.7 2424.9Z" fill="#352f1a" stroke="#352f1a"></path><path d="M832.7 2561.8L963.4 2570.8L963.4 2427.9Z" fill="#6c5b16" stroke="#6c5b16"></path><path d="M1107.2 2557.8L1240 2693.7L1245 2558.8Z" fill="#3d341a" stroke="#3d341a"></path><path d="M1378.8 2564.8L1513.6 2692.7L1521.6 2567.8Z" fill="#856f0d" stroke="#856f0d"></path><path d="M1106.2 1087.1L955.4 1078.1L962.4 1206Z" fill="#4d421a" stroke="#4d421a"></path><path d="M554.1 1355.8L553.1 1476.7L687.9 1355.8Z" fill="#645317" stroke="#645317"></path><path d="M1099.2 945.2L955.4 1078.1L1106.2 1087.1Z" fill="#453b1a" stroke="#453b1a"></path><path d="M545.1 2021.3L552.1 2165.2L687.9 2030.3Z" fill="#534719" stroke="#534719"></path><path d="M687.9 1355.8L553.1 1476.7L684.9 1484.7Z" fill="#6c5b16" stroke="#6c5b16"></path><path d="M550.1 1620.6L415.3 1751.5L542.1 1758.5Z" fill="#453b1a" stroke="#453b1a"></path><path d="M686.9 1214L817.7 1349.8L823.7 1220Z" fill="#352f1a" stroke="#352f1a"></path><path d="M548.1 2433.9L694.9 2428.9L683.9 2297Z" fill="#6c5b16" stroke="#6c5b16"></path><path d="M683.9 2297L694.9 2428.9L826.7 2296Z" fill="#453b1a" stroke="#453b1a"></path><path d="M2071.7 1347.8L1931.9 1218L1919.9 1351.8Z" fill="#453b1a" stroke="#453b1a"></path><path d="M1794.1 1212L1789.1 1078.1L1657.3 1209Z" fill="#534719" stroke="#534719"></path><path d="M1795.1 2558.8L1936.9 2428.9L1786.1 2422.9Z" fill="#534719" stroke="#534719"></path><path d="M1093.2 2695.7L1240 2693.7L1107.2 2557.8Z" fill="#534719" stroke="#534719"></path><path d="M1521.6 2567.8L1655.3 2703.7L1650.3 2554.8Z" fill="#6c5b16" stroke="#6c5b16"></path><path d="M1240 2693.7L1384.8 2693.7L1378.8 2564.8Z" fill="#5c4e18" stroke="#5c4e18"></path><path d="M1650.3 2554.8L1795.1 2558.8L1786.1 2422.9Z" fill="#645317" stroke="#645317"></path><path d="M827.7 1087.1L686.9 1214L823.7 1220Z" fill="#352f1a" stroke="#352f1a"></path><path d="M1789.1 2698.7L1795.1 2558.8L1650.3 2554.8Z" fill="#453b1a" stroke="#453b1a"></path><path d="M694.9 2428.9L832.7 2561.8L826.7 2424.9Z" fill="#534719" stroke="#534719"></path><path d="M963.4 2570.8L1093.2 2695.7L1107.2 2557.8Z" fill="#6c5b16" stroke="#6c5b16"></path><path d="M955.4 1078.1L827.7 1087.1L962.4 1206Z" fill="#4d421a" stroke="#4d421a"></path><path d="M1515.6 941.2L1384.8 944.2L1506.6 1087.1Z" fill="#645317" stroke="#645317"></path><path d="M1379.8 1073.1L1242 938.2L1238 1087.1Z" fill="#4d421a" stroke="#4d421a"></path><path d="M955.4 1078.1L823.7 943.2L827.7 1087.1Z" fill="#352f1a" stroke="#352f1a"></path><path d="M1515.6 941.2L1506.6 1087.1L1644.3 951.2Z" fill="#736113" stroke="#736113"></path><path d="M1929.9 1072.1L1789.1 1078.1L1794.1 1212Z" fill="#5c4e18" stroke="#5c4e18"></path><path d="M552.1 2165.2L558.1 2288L692.9 2164.2Z" fill="#7c6811" stroke="#7c6811"></path><path d="M1384.8 944.2L1242 938.2L1379.8 1073.1Z" fill="#645317" stroke="#645317"></path><path d="M686.9 1214L554.1 1355.8L687.9 1355.8Z" fill="#7c6811" stroke="#7c6811"></path><path d="M415.3 1609.6L415.3 1751.5L550.1 1620.6Z" fill="#534719" stroke="#534719"></path><path d="M1384.8 2693.7L1513.6 2692.7L1378.8 2564.8Z" fill="#6c5b16" stroke="#6c5b16"></path><path d="M1936.9 2428.9L2072.7 2297L1922.9 2285Z" fill="#7c6811" stroke="#7c6811"></path><path d="M2197.4 2022.3L2066.7 1887.4L2074.7 2018.3Z" fill="#4d421a" stroke="#4d421a"></path><path d="M2206.4 1618.6L2063.7 1488.7L2063.7 1623.6Z" fill="#453b1a" stroke="#453b1a"></path><path d="M2063.7 1488.7L2071.7 1347.8L1929.9 1480.7Z" fill="#4d421a" stroke="#4d421a"></path><path d="M1931.9 1218L1929.9 1072.1L1794.1 1212Z" fill="#4d421a" stroke="#4d421a"></path><path d="M963.4 2690.7L1093.2 2695.7L963.4 2570.8Z" fill="#3d341a" stroke="#3d341a"></path><path d="M1512.6 2830.6L1513.6 2692.7L1384.8 2693.7Z" fill="#4d421a" stroke="#4d421a"></path><path d="M415.3 1609.6L550.1 1620.6L553.1 1476.7Z" fill="#352f1a" stroke="#352f1a"></path><path d="M542.1 1758.5L407.3 1892.4L558.1 1880.4Z" fill="#645317" stroke="#645317"></path><path d="M545.1 2021.3L416.3 2159.2L552.1 2165.2Z" fill="#856f0d" stroke="#856f0d"></path><path d="M552.1 2165.2L419.3 2289L558.1 2288Z" fill="#6c5b16" stroke="#6c5b16"></path><path d="M2197.4 2022.3L2074.7 2018.3L2211.4 2152.2Z" fill="#3d341a" stroke="#3d341a"></path><path d="M2197.4 2022.3L2210.4 1883.4L2066.7 1887.4Z" fill="#352f1a" stroke="#352f1a"></path><path d="M2210.4 1883.4L2210.4 1755.5L2060.7 1758.5Z" fill="#6c5b16" stroke="#6c5b16"></path><path d="M1242 938.2L1099.2 945.2L1238 1087.1Z" fill="#534719" stroke="#534719"></path><path d="M1644.3 951.2L1506.6 1087.1L1653.3 1082.1Z" fill="#352f1a" stroke="#352f1a"></path><path d="M1384.8 944.2L1381.8 814.3L1242 938.2Z" fill="#7c6811" stroke="#7c6811"></path><path d="M2211.4 2152.2L2074.7 2018.3L2059.7 2164.2Z" fill="#856f0d" stroke="#856f0d"></path><path d="M415.3 1751.5L407.3 1892.4L542.1 1758.5Z" fill="#6c5b16" stroke="#6c5b16"></path><path d="M2210.4 1755.5L2206.4 1618.6L2063.7 1623.6Z" fill="#352f1a" stroke="#352f1a"></path><path d="M407.3 1892.4L415.3 2016.3L545.1 2021.3Z" fill="#352f1a" stroke="#352f1a"></path><path d="M411.3 1474.7L415.3 1609.6L553.1 1476.7Z" fill="#7c6811" stroke="#7c6811"></path><path d="M415.3 1751.5L274.6 1749.5L407.3 1892.4Z" fill="#534719" stroke="#534719"></path><path d="M1792.1 951.2L1644.3 951.2L1653.3 1082.1Z" fill="#645317" stroke="#645317"></path><path d="M826.7 2691.7L963.4 2690.7L963.4 2570.8Z" fill="#736113" stroke="#736113"></path><path d="M826.7 2691.7L963.4 2570.8L832.7 2561.8Z" fill="#534719" stroke="#534719"></path><path d="M823.7 943.2L961.4 948.2L958.4 811.3Z" fill="#645317" stroke="#645317"></path><path d="M1099.2 945.2L961.4 948.2L955.4 1078.1Z" fill="#736113" stroke="#736113"></path><path d="M827.7 1087.1L687.9 1084.1L686.9 1214Z" fill="#645317" stroke="#645317"></path><path d="M1372.8 2830.6L1384.8 2693.7L1240 2693.7Z" fill="#534719" stroke="#534719"></path><path d="M1512.6 2830.6L1655.3 2703.7L1513.6 2692.7Z" fill="#352f1a" stroke="#352f1a"></path><path d="M1513.6 2692.7L1655.3 2703.7L1521.6 2567.8Z" fill="#534719" stroke="#534719"></path><path d="M1795.1 2558.8L1919.9 2564.8L1936.9 2428.9Z" fill="#6c5b16" stroke="#6c5b16"></path><path d="M1936.9 2428.9L2057.7 2434.9L2072.7 2297Z" fill="#3d341a" stroke="#3d341a"></path><path d="M2206.4 1618.6L2195.4 1479.7L2063.7 1488.7Z" fill="#5c4e18" stroke="#5c4e18"></path><path d="M282.6 2155.2L416.3 2159.2L415.3 2016.3Z" fill="#4d421a" stroke="#4d421a"></path><path d="M415.3 2016.3L416.3 2159.2L545.1 2021.3Z" fill="#736113" stroke="#736113"></path><path d="M548.1 2433.9L680.9 2563.8L694.9 2428.9Z" fill="#736113" stroke="#736113"></path><path d="M694.9 2428.9L680.9 2563.8L832.7 2561.8Z" fill="#534719" stroke="#534719"></path><path d="M2197.4 2295L2211.4 2152.2L2059.7 2164.2Z" fill="#856f0d" stroke="#856f0d"></path><path d="M2333.2 2025.3L2343.2 1891.4L2210.4 1883.4Z" fill="#3d341a" stroke="#3d341a"></path><path d="M2210.4 1883.4L2343.2 1750.5L2210.4 1755.5Z" fill="#4d421a" stroke="#4d421a"></path><path d="M1789.1 2698.7L1919.9 2564.8L1795.1 2558.8Z" fill="#352f1a" stroke="#352f1a"></path><path d="M2072.7 2297L2197.4 2295L2059.7 2164.2Z" fill="#534719" stroke="#534719"></path><path d="M2069.7 2559.8L2057.7 2434.9L1936.9 2428.9Z" fill="#856f0d" stroke="#856f0d"></path><path d="M554.1 1355.8L411.3 1474.7L553.1 1476.7Z" fill="#856f0d" stroke="#856f0d"></path><path d="M415.3 1609.6L274.6 1749.5L415.3 1751.5Z" fill="#7c6811" stroke="#7c6811"></path><path d="M421.3 1342.8L411.3 1474.7L554.1 1355.8Z" fill="#6c5b16" stroke="#6c5b16"></path><path d="M543.1 1206L554.1 1355.8L686.9 1214Z" fill="#534719" stroke="#534719"></path><path d="M823.7 943.2L687.9 1084.1L827.7 1087.1Z" fill="#3d341a" stroke="#3d341a"></path><path d="M2209.4 1221L2062.7 1205L2071.7 1347.8Z" fill="#534719" stroke="#534719"></path><path d="M2071.7 1347.8L2062.7 1205L1931.9 1218Z" fill="#352f1a" stroke="#352f1a"></path><path d="M1789.1 1078.1L1792.1 951.2L1653.3 1082.1Z" fill="#3d341a" stroke="#3d341a"></path><path d="M548.1 2433.9L683.9 2297L558.1 2288Z" fill="#4d421a" stroke="#4d421a"></path><path d="M2062.7 1205L1929.9 1072.1L1931.9 1218Z" fill="#4d421a" stroke="#4d421a"></path><path d="M419.3 2289L548.1 2433.9L558.1 2288Z" fill="#3d341a" stroke="#3d341a"></path><path d="M555.1 1081.1L543.1 1206L686.9 1214Z" fill="#534719" stroke="#534719"></path><path d="M680.9 2563.8L826.7 2691.7L832.7 2561.8Z" fill="#856f0d" stroke="#856f0d"></path><path d="M1245 2837.6L1240 2693.7L1093.2 2824.6Z" fill="#453b1a" stroke="#453b1a"></path><path d="M1929.9 1072.1L1792.1 951.2L1789.1 1078.1Z" fill="#4d421a" stroke="#4d421a"></path><path d="M1508.6 801.3L1381.8 814.3L1515.6 941.2Z" fill="#3d341a" stroke="#3d341a"></path><path d="M1655.3 2703.7L1789.1 2698.7L1650.3 2554.8Z" fill="#7c6811" stroke="#7c6811"></path><path d="M1919.9 2564.8L2069.7 2559.8L1936.9 2428.9Z" fill="#645317" stroke="#645317"></path><path d="M2203.4 2425.9L2197.4 2295L2072.7 2297Z" fill="#453b1a" stroke="#453b1a"></path><path d="M2340.2 1488.7L2196.4 1348.8L2195.4 1479.7Z" fill="#4d421a" stroke="#4d421a"></path><path d="M2195.4 1479.7L2196.4 1348.8L2071.7 1347.8Z" fill="#4d421a" stroke="#4d421a"></path><path d="M282.6 2155.2L419.3 2289L416.3 2159.2Z" fill="#4d421a" stroke="#4d421a"></path><path d="M416.3 2159.2L419.3 2289L552.1 2165.2Z" fill="#352f1a" stroke="#352f1a"></path><path d="M961.4 948.2L823.7 943.2L955.4 1078.1Z" fill="#3d341a" stroke="#3d341a"></path><path d="M687.9 1084.1L555.1 1081.1L686.9 1214Z" fill="#4d421a" stroke="#4d421a"></path><path d="M1098.2 812.3L961.4 948.2L1099.2 945.2Z" fill="#6c5b16" stroke="#6c5b16"></path><path d="M1240 2693.7L1093.2 2695.7L1093.2 2824.6Z" fill="#7c6811" stroke="#7c6811"></path><path d="M1245 2837.6L1372.8 2830.6L1240 2693.7Z" fill="#6c5b16" stroke="#6c5b16"></path><path d="M1655.3 2703.7L1792.1 2823.6L1789.1 2698.7Z" fill="#4d421a" stroke="#4d421a"></path><path d="M1508.6 801.3L1515.6 941.2L1650.3 800.3Z" fill="#534719" stroke="#534719"></path><path d="M1515.6 941.2L1381.8 814.3L1384.8 944.2Z" fill="#3d341a" stroke="#3d341a"></path><path d="M1242 938.2L1098.2 812.3L1099.2 945.2Z" fill="#4d421a" stroke="#4d421a"></path><path d="M1381.8 814.3L1241 814.3L1242 938.2Z" fill="#4d421a" stroke="#4d421a"></path><path d="M543.1 1206L421.3 1342.8L554.1 1355.8Z" fill="#645317" stroke="#645317"></path><path d="M1093.2 2824.6L1093.2 2695.7L963.4 2690.7Z" fill="#4d421a" stroke="#4d421a"></path><path d="M963.4 2830.6L1093.2 2824.6L963.4 2690.7Z" fill="#3d341a" stroke="#3d341a"></path><path d="M1516.6 2965.5L1512.6 2830.6L1372.8 2830.6Z" fill="#856f0d" stroke="#856f0d"></path><path d="M1372.8 2830.6L1512.6 2830.6L1384.8 2693.7Z" fill="#736113" stroke="#736113"></path><path d="M2333.2 2025.3L2210.4 1883.4L2197.4 2022.3Z" fill="#856f0d" stroke="#856f0d"></path><path d="M2210.4 1755.5L2338.2 1621.6L2206.4 1618.6Z" fill="#856f0d" stroke="#856f0d"></path><path d="M2206.4 1618.6L2340.2 1488.7L2195.4 1479.7Z" fill="#6c5b16" stroke="#6c5b16"></path><path d="M2333.2 2025.3L2197.4 2022.3L2211.4 2152.2Z" fill="#5c4e18" stroke="#5c4e18"></path><path d="M2343.2 1891.4L2343.2 1750.5L2210.4 1883.4Z" fill="#856f0d" stroke="#856f0d"></path><path d="M1105.2 670.4L1098.2 812.3L1241 814.3Z" fill="#534719" stroke="#534719"></path><path d="M1241 814.3L1098.2 812.3L1242 938.2Z" fill="#856f0d" stroke="#856f0d"></path><path d="M274.6 1609.6L415.3 1609.6L269.6 1487.7Z" fill="#352f1a" stroke="#352f1a"></path><path d="M274.6 1609.6L274.6 1749.5L415.3 1609.6Z" fill="#352f1a" stroke="#352f1a"></path><path d="M407.3 1892.4L282.6 2016.3L415.3 2016.3Z" fill="#5c4e18" stroke="#5c4e18"></path><path d="M2340.2 2165.2L2333.2 2025.3L2211.4 2152.2Z" fill="#5c4e18" stroke="#5c4e18"></path><path d="M1650.3 800.3L1515.6 941.2L1644.3 951.2Z" fill="#5c4e18" stroke="#5c4e18"></path><path d="M1381.8 814.3L1247 678.4L1241 814.3Z" fill="#4d421a" stroke="#4d421a"></path><path d="M2343.2 1750.5L2338.2 1621.6L2210.4 1755.5Z" fill="#453b1a" stroke="#453b1a"></path><path d="M266.6 1896.4L282.6 2016.3L407.3 1892.4Z" fill="#6c5b16" stroke="#6c5b16"></path><path d="M274.6 1749.5L266.6 1896.4L407.3 1892.4Z" fill="#534719" stroke="#534719"></path><path d="M2068.7 2695.7L2069.7 2559.8L1919.9 2564.8Z" fill="#7c6811" stroke="#7c6811"></path><path d="M2057.7 2434.9L2203.4 2425.9L2072.7 2297Z" fill="#856f0d" stroke="#856f0d"></path><path d="M2336.2 2285L2340.2 2165.2L2211.4 2152.2Z" fill="#453b1a" stroke="#453b1a"></path><path d="M2062.7 1205L2057.7 1072.1L1929.9 1072.1Z" fill="#856f0d" stroke="#856f0d"></path><path d="M1929.9 1072.1L1920.9 947.2L1792.1 951.2Z" fill="#352f1a" stroke="#352f1a"></path><path d="M1793.1 814.3L1650.3 800.3L1644.3 951.2Z" fill="#7c6811" stroke="#7c6811"></path><path d="M2203.4 1081.1L2057.7 1072.1L2062.7 1205Z" fill="#856f0d" stroke="#856f0d"></path><path d="M2209.4 1221L2071.7 1347.8L2196.4 1348.8Z" fill="#7c6811" stroke="#7c6811"></path><path d="M269.6 1487.7L415.3 1609.6L411.3 1474.7Z" fill="#7c6811" stroke="#7c6811"></path><path d="M274.6 1749.5L143.8 1755.5L266.6 1896.4Z" fill="#4d421a" stroke="#4d421a"></path><path d="M1512.6 2830.6L1658.3 2826.6L1655.3 2703.7Z" fill="#352f1a" stroke="#352f1a"></path><path d="M1789.1 2698.7L1923.9 2698.7L1919.9 2564.8Z" fill="#736113" stroke="#736113"></path><path d="M543.1 1206L405.3 1210L421.3 1342.8Z" fill="#453b1a" stroke="#453b1a"></path><path d="M266.6 1356.8L269.6 1487.7L411.3 1474.7Z" fill="#352f1a" stroke="#352f1a"></path><path d="M682.9 935.2L555.1 1081.1L687.9 1084.1Z" fill="#3d341a" stroke="#3d341a"></path><path d="M826.7 2691.7L963.4 2830.6L963.4 2690.7Z" fill="#645317" stroke="#645317"></path><path d="M1240 2970.5L1371.8 2969.5L1245 2837.6Z" fill="#534719" stroke="#534719"></path><path d="M830.7 2836.6L963.4 2830.6L826.7 2691.7Z" fill="#453b1a" stroke="#453b1a"></path><path d="M2057.7 1072.1L1920.9 947.2L1929.9 1072.1Z" fill="#7c6811" stroke="#7c6811"></path><path d="M1792.1 2823.6L1923.9 2698.7L1789.1 2698.7Z" fill="#5c4e18" stroke="#5c4e18"></path><path d="M405.3 2566.8L547.1 2570.8L548.1 2433.9Z" fill="#453b1a" stroke="#453b1a"></path><path d="M548.1 2433.9L547.1 2570.8L680.9 2563.8Z" fill="#6c5b16" stroke="#6c5b16"></path><path d="M680.9 2563.8L688.9 2697.7L826.7 2691.7Z" fill="#7c6811" stroke="#7c6811"></path><path d="M410.3 2426.9L548.1 2433.9L419.3 2289Z" fill="#3d341a" stroke="#3d341a"></path><path d="M817.7 803.3L958.4 811.3L964.4 675.4Z" fill="#534719" stroke="#534719"></path><path d="M1098.2 812.3L958.4 811.3L961.4 948.2Z" fill="#4d421a" stroke="#4d421a"></path><path d="M823.7 943.2L682.9 935.2L687.9 1084.1Z" fill="#856f0d" stroke="#856f0d"></path><path d="M553.1 2698.7L688.9 2697.7L680.9 2563.8Z" fill="#4d421a" stroke="#4d421a"></path><path d="M2069.7 2559.8L2203.4 2425.9L2057.7 2434.9Z" fill="#352f1a" stroke="#352f1a"></path><path d="M1793.1 814.3L1644.3 951.2L1792.1 951.2Z" fill="#4d421a" stroke="#4d421a"></path><path d="M2350.2 1345.8L2209.4 1221L2196.4 1348.8Z" fill="#3d341a" stroke="#3d341a"></path><path d="M2480 1620.6L2340.2 1488.7L2338.2 1621.6Z" fill="#453b1a" stroke="#453b1a"></path><path d="M2338.2 1621.6L2340.2 1488.7L2206.4 1618.6Z" fill="#856f0d" stroke="#856f0d"></path><path d="M139.8 2024.3L282.6 2155.2L282.6 2016.3Z" fill="#645317" stroke="#645317"></path><path d="M282.6 2016.3L282.6 2155.2L415.3 2016.3Z" fill="#736113" stroke="#736113"></path><path d="M2336.2 2285L2211.4 2152.2L2197.4 2295Z" fill="#5c4e18" stroke="#5c4e18"></path><path d="M2480 2018.3L2480 1890.4L2343.2 1891.4Z" fill="#5c4e18" stroke="#5c4e18"></path><path d="M270.6 2297L410.3 2426.9L419.3 2289Z" fill="#453b1a" stroke="#453b1a"></path><path d="M817.7 803.3L682.9 935.2L823.7 943.2Z" fill="#5c4e18" stroke="#5c4e18"></path><path d="M404.3 1081.1L543.1 1206L555.1 1081.1Z" fill="#7c6811" stroke="#7c6811"></path><path d="M404.3 1081.1L405.3 1210L543.1 1206Z" fill="#856f0d" stroke="#856f0d"></path><path d="M266.6 1356.8L411.3 1474.7L421.3 1342.8Z" fill="#736113" stroke="#736113"></path><path d="M274.6 1609.6L143.8 1755.5L274.6 1749.5Z" fill="#645317" stroke="#645317"></path><path d="M1788.1 2960.5L1792.1 2823.6L1658.3 2826.6Z" fill="#4d421a" stroke="#4d421a"></path><path d="M1658.3 2826.6L1792.1 2823.6L1655.3 2703.7Z" fill="#645317" stroke="#645317"></path><path d="M1516.6 2965.5L1658.3 2826.6L1512.6 2830.6Z" fill="#4d421a" stroke="#4d421a"></path><path d="M1920.9 947.2L1793.1 814.3L1792.1 951.2Z" fill="#4d421a" stroke="#4d421a"></path><path d="M1921.9 810.3L1793.1 814.3L1920.9 947.2Z" fill="#645317" stroke="#645317"></path><path d="M688.9 2832.6L826.7 2691.7L688.9 2697.7Z" fill="#453b1a" stroke="#453b1a"></path><path d="M688.9 2832.6L830.7 2836.6L826.7 2691.7Z" fill="#645317" stroke="#645317"></path><path d="M1240 2970.5L1245 2837.6L1105.2 2959.5Z" fill="#4d421a" stroke="#4d421a"></path><path d="M2203.4 2425.9L2336.2 2285L2197.4 2295Z" fill="#453b1a" stroke="#453b1a"></path><path d="M958.4 811.3L817.7 803.3L823.7 943.2Z" fill="#5c4e18" stroke="#5c4e18"></path><path d="M964.4 675.4L958.4 811.3L1098.2 812.3Z" fill="#5c4e18" stroke="#5c4e18"></path><path d="M1247 678.4L1381.8 814.3L1371.8 672.4Z" fill="#5c4e18" stroke="#5c4e18"></path><path d="M2340.2 1488.7L2350.2 1345.8L2196.4 1348.8Z" fill="#5c4e18" stroke="#5c4e18"></path><path d="M2209.4 1221L2203.4 1081.1L2062.7 1205Z" fill="#6c5b16" stroke="#6c5b16"></path><path d="M2057.7 1072.1L2068.7 941.2L1920.9 947.2Z" fill="#352f1a" stroke="#352f1a"></path><path d="M2480 1489.7L2350.2 1345.8L2340.2 1488.7Z" fill="#352f1a" stroke="#352f1a"></path><path d="M2480 1745.5L2338.2 1621.6L2343.2 1750.5Z" fill="#7c6811" stroke="#7c6811"></path><path d="M2480 1890.4L2343.2 1750.5L2343.2 1891.4Z" fill="#534719" stroke="#534719"></path><path d="M143.8 2165.2L270.6 2297L282.6 2155.2Z" fill="#3d341a" stroke="#3d341a"></path><path d="M282.6 2155.2L270.6 2297L419.3 2289Z" fill="#3d341a" stroke="#3d341a"></path><path d="M420.3 2704.7L553.1 2698.7L547.1 2570.8Z" fill="#856f0d" stroke="#856f0d"></path><path d="M282.6 1217L266.6 1356.8L421.3 1342.8Z" fill="#453b1a" stroke="#453b1a"></path><path d="M130.8 1612.6L143.8 1755.5L274.6 1609.6Z" fill="#352f1a" stroke="#352f1a"></path><path d="M1245 2837.6L1093.2 2824.6L1105.2 2959.5Z" fill="#534719" stroke="#534719"></path><path d="M1245 2837.6L1371.8 2969.5L1372.8 2830.6Z" fill="#352f1a" stroke="#352f1a"></path><path d="M1371.8 672.4L1508.6 801.3L1522.6 681.4Z" fill="#352f1a" stroke="#352f1a"></path><path d="M1371.8 672.4L1381.8 814.3L1508.6 801.3Z" fill="#453b1a" stroke="#453b1a"></path><path d="M1105.2 2959.5L1093.2 2824.6L963.4 2830.6Z" fill="#453b1a" stroke="#453b1a"></path><path d="M1522.6 681.4L1508.6 801.3L1650.3 800.3Z" fill="#6c5b16" stroke="#6c5b16"></path><path d="M1923.9 2698.7L2068.7 2695.7L1919.9 2564.8Z" fill="#352f1a" stroke="#352f1a"></path><path d="M2069.7 2559.8L2198.4 2563.8L2203.4 2425.9Z" fill="#4d421a" stroke="#4d421a"></path><path d="M2203.4 2425.9L2345.2 2424.9L2336.2 2285Z" fill="#4d421a" stroke="#4d421a"></path><path d="M2061.7 2838.6L2068.7 2695.7L1923.9 2698.7Z" fill="#352f1a" stroke="#352f1a"></path><path d="M963.4 2967.5L1105.2 2959.5L963.4 2830.6Z" fill="#645317" stroke="#645317"></path><path d="M2068.7 2695.7L2198.4 2563.8L2069.7 2559.8Z" fill="#856f0d" stroke="#856f0d"></path><path d="M547.1 2570.8L553.1 2698.7L680.9 2563.8Z" fill="#3d341a" stroke="#3d341a"></path><path d="M405.3 2566.8L548.1 2433.9L410.3 2426.9Z" fill="#736113" stroke="#736113"></path><path d="M1371.8 2969.5L1516.6 2965.5L1372.8 2830.6Z" fill="#534719" stroke="#534719"></path><path d="M1792.1 2823.6L1922.9 2832.6L1923.9 2698.7Z" fill="#7c6811" stroke="#7c6811"></path><path d="M2338.2 1078.1L2203.4 1081.1L2209.4 1221Z" fill="#736113" stroke="#736113"></path><path d="M1652.3 670.4L1522.6 681.4L1650.3 800.3Z" fill="#645317" stroke="#645317"></path><path d="M2198.4 949.2L2068.7 941.2L2057.7 1072.1Z" fill="#453b1a" stroke="#453b1a"></path><path d="M1785.1 680.4L1652.3 670.4L1650.3 800.3Z" fill="#3d341a" stroke="#3d341a"></path><path d="M683.9 801.3L557.1 935.2L682.9 935.2Z" fill="#352f1a" stroke="#352f1a"></path><path d="M682.9 935.2L557.1 935.2L555.1 1081.1Z" fill="#3d341a" stroke="#3d341a"></path><path d="M405.3 1210L282.6 1217L421.3 1342.8Z" fill="#3d341a" stroke="#3d341a"></path><path d="M2480 2018.3L2333.2 2025.3L2340.2 2165.2Z" fill="#352f1a" stroke="#352f1a"></path><path d="M2480 2018.3L2343.2 1891.4L2333.2 2025.3Z" fill="#645317" stroke="#645317"></path><path d="M2480 1890.4L2480 1745.5L2343.2 1750.5Z" fill="#5c4e18" stroke="#5c4e18"></path><path d="M130.8 1612.6L274.6 1609.6L143.8 1487.7Z" fill="#4d421a" stroke="#4d421a"></path><path d="M266.6 1896.4L139.8 2024.3L282.6 2016.3Z" fill="#7c6811" stroke="#7c6811"></path><path d="M1233 539.5L1105.2 670.4L1247 678.4Z" fill="#6c5b16" stroke="#6c5b16"></path><path d="M1247 678.4L1105.2 670.4L1241 814.3Z" fill="#856f0d" stroke="#856f0d"></path><path d="M283.6 2429.9L405.3 2566.8L410.3 2426.9Z" fill="#7c6811" stroke="#7c6811"></path><path d="M417.3 936.2L404.3 1081.1L555.1 1081.1Z" fill="#7c6811" stroke="#7c6811"></path><path d="M1788.1 2960.5L1922.9 2832.6L1792.1 2823.6Z" fill="#7c6811" stroke="#7c6811"></path><path d="M2068.7 941.2L1921.9 810.3L1920.9 947.2Z" fill="#5c4e18" stroke="#5c4e18"></path><path d="M143.8 1755.5L130.8 1887.4L266.6 1896.4Z" fill="#3d341a" stroke="#3d341a"></path><path d="M2480 2166.2L2340.2 2165.2L2336.2 2285Z" fill="#6c5b16" stroke="#6c5b16"></path><path d="M2480 2166.2L2480 2018.3L2340.2 2165.2Z" fill="#352f1a" stroke="#352f1a"></path><path d="M2480 1745.5L2480 1620.6L2338.2 1621.6Z" fill="#3d341a" stroke="#3d341a"></path><path d="M543.1 2831.6L688.9 2832.6L553.1 2698.7Z" fill="#645317" stroke="#645317"></path><path d="M553.1 2698.7L688.9 2832.6L688.9 2697.7Z" fill="#453b1a" stroke="#453b1a"></path><path d="M832.7 2961.5L963.4 2967.5L963.4 2830.6Z" fill="#7c6811" stroke="#7c6811"></path><path d="M130.8 1887.4L139.8 2024.3L266.6 1896.4Z" fill="#4d421a" stroke="#4d421a"></path><path d="M270.6 2297L283.6 2429.9L410.3 2426.9Z" fill="#453b1a" stroke="#453b1a"></path><path d="M133.8 2428.9L283.6 2429.9L270.6 2297Z" fill="#534719" stroke="#534719"></path><path d="M2338.2 2560.8L2203.4 2425.9L2198.4 2563.8Z" fill="#6c5b16" stroke="#6c5b16"></path><path d="M2338.2 2560.8L2345.2 2424.9L2203.4 2425.9Z" fill="#5c4e18" stroke="#5c4e18"></path><path d="M404.3 1081.1L282.6 1217L405.3 1210Z" fill="#7c6811" stroke="#7c6811"></path><path d="M143.8 1487.7L274.6 1609.6L269.6 1487.7Z" fill="#7c6811" stroke="#7c6811"></path><path d="M832.7 2961.5L963.4 2830.6L830.7 2836.6Z" fill="#856f0d" stroke="#856f0d"></path><path d="M1105.2 2959.5L1242 3097.3L1240 2970.5Z" fill="#6c5b16" stroke="#6c5b16"></path><path d="M1105.2 670.4L964.4 675.4L1098.2 812.3Z" fill="#6c5b16" stroke="#6c5b16"></path><path d="M817.7 803.3L683.9 801.3L682.9 935.2Z" fill="#453b1a" stroke="#453b1a"></path><path d="M692.9 677.4L683.9 801.3L817.7 803.3Z" fill="#3d341a" stroke="#3d341a"></path><path d="M557.1 935.2L417.3 936.2L555.1 1081.1Z" fill="#7c6811" stroke="#7c6811"></path><path d="M143.8 1487.7L269.6 1487.7L266.6 1356.8Z" fill="#5c4e18" stroke="#5c4e18"></path><path d="M0 1750.5L0 1887.4L130.8 1887.4Z" fill="#645317" stroke="#645317"></path><path d="M1516.6 2965.5L1659.3 2974.5L1658.3 2826.6Z" fill="#453b1a" stroke="#453b1a"></path><path d="M1522.6 3098.3L1659.3 2974.5L1516.6 2965.5Z" fill="#6c5b16" stroke="#6c5b16"></path><path d="M1385.8 3101.3L1516.6 2965.5L1371.8 2969.5Z" fill="#7c6811" stroke="#7c6811"></path><path d="M2480 1207L2348.2 1214L2350.2 1345.8Z" fill="#645317" stroke="#645317"></path><path d="M2350.2 1345.8L2348.2 1214L2209.4 1221Z" fill="#7c6811" stroke="#7c6811"></path><path d="M2203.4 1081.1L2198.4 949.2L2057.7 1072.1Z" fill="#7c6811" stroke="#7c6811"></path><path d="M1785.1 680.4L1650.3 800.3L1793.1 814.3Z" fill="#4d421a" stroke="#4d421a"></path><path d="M1512.6 543.5L1374.8 541.5L1371.8 672.4Z" fill="#5c4e18" stroke="#5c4e18"></path><path d="M1371.8 672.4L1374.8 541.5L1247 678.4Z" fill="#7c6811" stroke="#7c6811"></path><path d="M2480 1620.6L2480 1489.7L2340.2 1488.7Z" fill="#3d341a" stroke="#3d341a"></path><path d="M140.8 1355.8L143.8 1487.7L266.6 1356.8Z" fill="#352f1a" stroke="#352f1a"></path><path d="M2480 2290L2480 2166.2L2336.2 2285Z" fill="#4d421a" stroke="#4d421a"></path><path d="M0 2161.2L143.8 2165.2L139.8 2024.3Z" fill="#856f0d" stroke="#856f0d"></path><path d="M139.8 2024.3L143.8 2165.2L282.6 2155.2Z" fill="#736113" stroke="#736113"></path><path d="M1659.3 2974.5L1788.1 2960.5L1658.3 2826.6Z" fill="#453b1a" stroke="#453b1a"></path><path d="M2061.7 2838.6L2207.4 2705.7L2068.7 2695.7Z" fill="#3d341a" stroke="#3d341a"></path><path d="M688.9 2832.6L832.7 2961.5L830.7 2836.6Z" fill="#736113" stroke="#736113"></path><path d="M1926.9 669.4L1785.1 680.4L1921.9 810.3Z" fill="#7c6811" stroke="#7c6811"></path><path d="M1921.9 810.3L1785.1 680.4L1793.1 814.3Z" fill="#6c5b16" stroke="#6c5b16"></path><path d="M2338.2 1078.1L2198.4 949.2L2203.4 1081.1Z" fill="#6c5b16" stroke="#6c5b16"></path><path d="M2068.7 941.2L2064.7 801.3L1921.9 810.3Z" fill="#856f0d" stroke="#856f0d"></path><path d="M958.4 541.5L817.7 673.4L964.4 675.4Z" fill="#534719" stroke="#534719"></path><path d="M964.4 675.4L817.7 673.4L817.7 803.3Z" fill="#6c5b16" stroke="#6c5b16"></path><path d="M267.6 2559.8L405.3 2566.8L283.6 2429.9Z" fill="#645317" stroke="#645317"></path><path d="M267.6 2697.7L420.3 2704.7L405.3 2566.8Z" fill="#856f0d" stroke="#856f0d"></path><path d="M405.3 2566.8L420.3 2704.7L547.1 2570.8Z" fill="#352f1a" stroke="#352f1a"></path><path d="M688.9 2832.6L684.9 2967.5L832.7 2961.5Z" fill="#4d421a" stroke="#4d421a"></path><path d="M0 2161.2L143.8 2285L143.8 2165.2Z" fill="#534719" stroke="#534719"></path><path d="M143.8 2165.2L143.8 2285L270.6 2297Z" fill="#6c5b16" stroke="#6c5b16"></path><path d="M2061.7 2838.6L1923.9 2698.7L1922.9 2832.6Z" fill="#856f0d" stroke="#856f0d"></path><path d="M2068.7 2695.7L2207.4 2705.7L2198.4 2563.8Z" fill="#736113" stroke="#736113"></path><path d="M2345.2 2424.9L2480 2290L2336.2 2285Z" fill="#4d421a" stroke="#4d421a"></path><path d="M2480 2426.9L2480 2290L2345.2 2424.9Z" fill="#352f1a" stroke="#352f1a"></path><path d="M2480 1489.7L2480 1351.8L2350.2 1345.8Z" fill="#352f1a" stroke="#352f1a"></path><path d="M2348.2 1214L2338.2 1078.1L2209.4 1221Z" fill="#453b1a" stroke="#453b1a"></path><path d="M404.3 1081.1L281.6 1074.1L282.6 1217Z" fill="#534719" stroke="#534719"></path><path d="M142.8 1217L140.8 1355.8L266.6 1356.8Z" fill="#736113" stroke="#736113"></path><path d="M548.1 804.3L417.3 936.2L557.1 935.2Z" fill="#3d341a" stroke="#3d341a"></path><path d="M548.1 804.3L557.1 935.2L683.9 801.3Z" fill="#4d421a" stroke="#4d421a"></path><path d="M1928.9 2958.5L2061.7 2838.6L1922.9 2832.6Z" fill="#352f1a" stroke="#352f1a"></path><path d="M142.8 1217L266.6 1356.8L282.6 1217Z" fill="#3d341a" stroke="#3d341a"></path><path d="M0 1750.5L143.8 1755.5L130.8 1612.6Z" fill="#6c5b16" stroke="#6c5b16"></path><path d="M2335.2 2699.7L2338.2 2560.8L2198.4 2563.8Z" fill="#645317" stroke="#645317"></path><path d="M420.3 2704.7L543.1 2831.6L553.1 2698.7Z" fill="#6c5b16" stroke="#6c5b16"></path><path d="M2480 1207L2338.2 1078.1L2348.2 1214Z" fill="#5c4e18" stroke="#5c4e18"></path><path d="M2211.4 809.3L2068.7 941.2L2198.4 949.2Z" fill="#534719" stroke="#534719"></path><path d="M2211.4 809.3L2064.7 801.3L2068.7 941.2Z" fill="#3d341a" stroke="#3d341a"></path><path d="M692.9 677.4L548.1 804.3L683.9 801.3Z" fill="#7c6811" stroke="#7c6811"></path><path d="M283.6 935.2L281.6 1074.1L404.3 1081.1Z" fill="#5c4e18" stroke="#5c4e18"></path><path d="M1094.2 3100.3L1242 3097.3L1105.2 2959.5Z" fill="#736113" stroke="#736113"></path><path d="M1240 2970.5L1242 3097.3L1371.8 2969.5Z" fill="#5c4e18" stroke="#5c4e18"></path><path d="M1659.3 2974.5L1782.1 3093.3L1788.1 2960.5Z" fill="#6c5b16" stroke="#6c5b16"></path><path d="M1094.2 3100.3L1105.2 2959.5L963.4 2967.5Z" fill="#4d421a" stroke="#4d421a"></path><path d="M133.8 2428.9L267.6 2559.8L283.6 2429.9Z" fill="#453b1a" stroke="#453b1a"></path><path d="M420.3 2704.7L418.3 2835.6L543.1 2831.6Z" fill="#4d421a" stroke="#4d421a"></path><path d="M1242 3097.3L1385.8 3101.3L1371.8 2969.5Z" fill="#7c6811" stroke="#7c6811"></path><path d="M1512.6 543.5L1522.6 681.4L1652.3 670.4Z" fill="#534719" stroke="#534719"></path><path d="M1512.6 543.5L1371.8 672.4L1522.6 681.4Z" fill="#7c6811" stroke="#7c6811"></path><path d="M1105.2 670.4L1094.2 536.5L964.4 675.4Z" fill="#7c6811" stroke="#7c6811"></path><path d="M1374.8 541.5L1233 539.5L1247 678.4Z" fill="#5c4e18" stroke="#5c4e18"></path><path d="M1934.9 3094.3L1928.9 2958.5L1788.1 2960.5Z" fill="#736113" stroke="#736113"></path><path d="M1788.1 2960.5L1928.9 2958.5L1922.9 2832.6Z" fill="#534719" stroke="#534719"></path><path d="M1385.8 3101.3L1522.6 3098.3L1516.6 2965.5Z" fill="#6c5b16" stroke="#6c5b16"></path><path d="M969.4 3095.3L963.4 2967.5L832.7 2961.5Z" fill="#856f0d" stroke="#856f0d"></path><path d="M969.4 3095.3L1094.2 3100.3L963.4 2967.5Z" fill="#856f0d" stroke="#856f0d"></path><path d="M1248 3243.2L1381.8 3242.2L1385.8 3101.3Z" fill="#3d341a" stroke="#3d341a"></path><path d="M1653.3 537.5L1512.6 543.5L1652.3 670.4Z" fill="#736113" stroke="#736113"></path><path d="M1653.3 537.5L1652.3 670.4L1785.1 680.4Z" fill="#3d341a" stroke="#3d341a"></path><path d="M817.7 673.4L692.9 677.4L817.7 803.3Z" fill="#7c6811" stroke="#7c6811"></path><path d="M818.7 535.5L692.9 677.4L817.7 673.4Z" fill="#5c4e18" stroke="#5c4e18"></path><path d="M551.1 2958.5L684.9 2967.5L688.9 2832.6Z" fill="#534719" stroke="#534719"></path><path d="M1241 408.7L1094.2 536.5L1233 539.5Z" fill="#856f0d" stroke="#856f0d"></path><path d="M1233 539.5L1094.2 536.5L1105.2 670.4Z" fill="#6c5b16" stroke="#6c5b16"></path><path d="M1241 408.7L1233 539.5L1374.8 541.5Z" fill="#6c5b16" stroke="#6c5b16"></path><path d="M2064.7 801.3L1926.9 669.4L1921.9 810.3Z" fill="#5c4e18" stroke="#5c4e18"></path><path d="M0 1750.5L130.8 1887.4L143.8 1755.5Z" fill="#736113" stroke="#736113"></path><path d="M130.8 1887.4L0 2014.3L139.8 2024.3Z" fill="#736113" stroke="#736113"></path><path d="M0 1750.5L130.8 1612.6L0 1613.6Z" fill="#3d341a" stroke="#3d341a"></path><path d="M2480 2564.8L2345.2 2424.9L2338.2 2560.8Z" fill="#534719" stroke="#534719"></path><path d="M2480 2564.8L2480 2426.9L2345.2 2424.9Z" fill="#5c4e18" stroke="#5c4e18"></path><path d="M0 1613.6L130.8 1612.6L0 1476.7Z" fill="#5c4e18" stroke="#5c4e18"></path><path d="M825.7 3108.3L969.4 3095.3L832.7 2961.5Z" fill="#7c6811" stroke="#7c6811"></path><path d="M281.6 1074.1L142.8 1217L282.6 1217Z" fill="#453b1a" stroke="#453b1a"></path><path d="M0 1476.7L130.8 1612.6L143.8 1487.7Z" fill="#453b1a" stroke="#453b1a"></path><path d="M2480 1351.8L2480 1207L2350.2 1345.8Z" fill="#453b1a" stroke="#453b1a"></path><path d="M2338.2 1078.1L2339.2 942.2L2198.4 949.2Z" fill="#736113" stroke="#736113"></path><path d="M0 2293L133.8 2428.9L143.8 2285Z" fill="#3d341a" stroke="#3d341a"></path><path d="M143.8 2285L133.8 2428.9L270.6 2297Z" fill="#3d341a" stroke="#3d341a"></path><path d="M278.6 2837.6L418.3 2835.6L420.3 2704.7Z" fill="#534719" stroke="#534719"></path><path d="M0 1887.4L0 2014.3L130.8 1887.4Z" fill="#5c4e18" stroke="#5c4e18"></path><path d="M0 1476.7L143.8 1487.7L140.8 1355.8Z" fill="#3d341a" stroke="#3d341a"></path><path d="M1094.2 536.5L958.4 541.5L964.4 675.4Z" fill="#453b1a" stroke="#453b1a"></path><path d="M1797.1 531.5L1653.3 537.5L1785.1 680.4Z" fill="#645317" stroke="#645317"></path><path d="M1378.8 396.7L1241 408.7L1374.8 541.5Z" fill="#7c6811" stroke="#7c6811"></path><path d="M1515.6 3245.2L1522.6 3098.3L1385.8 3101.3Z" fill="#6c5b16" stroke="#6c5b16"></path><path d="M1661.3 3236.2L1661.3 3108.3L1522.6 3098.3Z" fill="#856f0d" stroke="#856f0d"></path><path d="M1522.6 3098.3L1661.3 3108.3L1659.3 2974.5Z" fill="#4d421a" stroke="#4d421a"></path><path d="M2339.2 2826.6L2335.2 2699.7L2207.4 2705.7Z" fill="#453b1a" stroke="#453b1a"></path><path d="M2207.4 2705.7L2335.2 2699.7L2198.4 2563.8Z" fill="#736113" stroke="#736113"></path><path d="M2207.4 2835.6L2207.4 2705.7L2061.7 2838.6Z" fill="#6c5b16" stroke="#6c5b16"></path><path d="M543.1 2831.6L551.1 2958.5L688.9 2832.6Z" fill="#352f1a" stroke="#352f1a"></path><path d="M267.6 2697.7L405.3 2566.8L267.6 2559.8Z" fill="#4d421a" stroke="#4d421a"></path><path d="M2197.4 2963.5L2207.4 2835.6L2061.7 2838.6Z" fill="#7c6811" stroke="#7c6811"></path><path d="M2065.7 2970.5L2061.7 2838.6L1928.9 2958.5Z" fill="#856f0d" stroke="#856f0d"></path><path d="M2480 951.2L2339.2 942.2L2338.2 1078.1Z" fill="#736113" stroke="#736113"></path><path d="M2064.7 801.3L2070.7 680.4L1926.9 669.4Z" fill="#5c4e18" stroke="#5c4e18"></path><path d="M1661.3 3108.3L1782.1 3093.3L1659.3 2974.5Z" fill="#645317" stroke="#645317"></path><path d="M0 2014.3L0 2161.2L139.8 2024.3Z" fill="#736113" stroke="#736113"></path><path d="M2339.2 942.2L2211.4 809.3L2198.4 949.2Z" fill="#4d421a" stroke="#4d421a"></path><path d="M543.1 666.4L548.1 804.3L692.9 677.4Z" fill="#856f0d" stroke="#856f0d"></path><path d="M416.3 679.4L408.3 811.3L548.1 804.3Z" fill="#453b1a" stroke="#453b1a"></path><path d="M548.1 804.3L408.3 811.3L417.3 936.2Z" fill="#736113" stroke="#736113"></path><path d="M417.3 936.2L283.6 935.2L404.3 1081.1Z" fill="#352f1a" stroke="#352f1a"></path><path d="M281.6 1074.1L128.8 1077.1L142.8 1217Z" fill="#645317" stroke="#645317"></path><path d="M0 1345.8L0 1476.7L140.8 1355.8Z" fill="#453b1a" stroke="#453b1a"></path><path d="M408.3 811.3L283.6 935.2L417.3 936.2Z" fill="#453b1a" stroke="#453b1a"></path><path d="M142.8 1217L0 1345.8L140.8 1355.8Z" fill="#645317" stroke="#645317"></path><path d="M128.8 2564.8L267.6 2559.8L133.8 2428.9Z" fill="#736113" stroke="#736113"></path><path d="M145.8 2689.7L267.6 2697.7L267.6 2559.8Z" fill="#856f0d" stroke="#856f0d"></path><path d="M684.9 2967.5L551.1 2958.5L559.1 3095.3Z" fill="#7c6811" stroke="#7c6811"></path><path d="M418.3 2835.6L551.1 2958.5L543.1 2831.6Z" fill="#5c4e18" stroke="#5c4e18"></path><path d="M692.9 3096.3L825.7 3108.3L832.7 2961.5Z" fill="#453b1a" stroke="#453b1a"></path><path d="M1934.9 3094.3L2065.7 2970.5L1928.9 2958.5Z" fill="#5c4e18" stroke="#5c4e18"></path><path d="M2204.4 680.4L2070.7 680.4L2064.7 801.3Z" fill="#3d341a" stroke="#3d341a"></path><path d="M1926.9 669.4L1797.1 531.5L1785.1 680.4Z" fill="#4d421a" stroke="#4d421a"></path><path d="M1248 3243.2L1242 3097.3L1097.2 3232.2Z" fill="#453b1a" stroke="#453b1a"></path><path d="M1248 3243.2L1385.8 3101.3L1242 3097.3Z" fill="#4d421a" stroke="#4d421a"></path><path d="M692.9 3096.3L832.7 2961.5L684.9 2967.5Z" fill="#453b1a" stroke="#453b1a"></path><path d="M817.7 408.7L818.7 535.5L958.4 541.5Z" fill="#3d341a" stroke="#3d341a"></path><path d="M958.4 541.5L818.7 535.5L817.7 673.4Z" fill="#534719" stroke="#534719"></path><path d="M963.4 400.7L958.4 541.5L1094.2 536.5Z" fill="#4d421a" stroke="#4d421a"></path><path d="M1925.9 533.5L1797.1 531.5L1926.9 669.4Z" fill="#6c5b16" stroke="#6c5b16"></path><path d="M1378.8 396.7L1374.8 541.5L1512.6 543.5Z" fill="#3d341a" stroke="#3d341a"></path><path d="M2480 2698.7L2480 2564.8L2338.2 2560.8Z" fill="#3d341a" stroke="#3d341a"></path><path d="M2480 2698.7L2338.2 2560.8L2335.2 2699.7Z" fill="#534719" stroke="#534719"></path><path d="M2480 1207L2480 1074.1L2338.2 1078.1Z" fill="#453b1a" stroke="#453b1a"></path><path d="M2340.2 679.4L2204.4 680.4L2211.4 809.3Z" fill="#453b1a" stroke="#453b1a"></path><path d="M679.9 533.5L543.1 666.4L692.9 677.4Z" fill="#3d341a" stroke="#3d341a"></path><path d="M408.3 811.3L278.6 811.3L283.6 935.2Z" fill="#5c4e18" stroke="#5c4e18"></path><path d="M0 2161.2L0 2293L143.8 2285Z" fill="#352f1a" stroke="#352f1a"></path><path d="M0 2434.9L128.8 2564.8L133.8 2428.9Z" fill="#7c6811" stroke="#7c6811"></path><path d="M0 1205L0 1345.8L142.8 1217Z" fill="#736113" stroke="#736113"></path><path d="M139.8 944.2L281.6 1074.1L283.6 935.2Z" fill="#3d341a" stroke="#3d341a"></path><path d="M139.8 944.2L128.8 1077.1L281.6 1074.1Z" fill="#352f1a" stroke="#352f1a"></path><path d="M1927.9 3229.2L1934.9 3094.3L1782.1 3093.3Z" fill="#3d341a" stroke="#3d341a"></path><path d="M1782.1 3093.3L1934.9 3094.3L1788.1 2960.5Z" fill="#856f0d" stroke="#856f0d"></path><path d="M417.3 2974.5L551.1 2958.5L418.3 2835.6Z" fill="#4d421a" stroke="#4d421a"></path><path d="M559.1 3095.3L692.9 3096.3L684.9 2967.5Z" fill="#736113" stroke="#736113"></path><path d="M1378.8 396.7L1512.6 543.5L1522.6 399.7Z" fill="#856f0d" stroke="#856f0d"></path><path d="M1242 3097.3L1094.2 3100.3L1097.2 3232.2Z" fill="#453b1a" stroke="#453b1a"></path><path d="M1661.3 3108.3L1791.1 3234.2L1782.1 3093.3Z" fill="#352f1a" stroke="#352f1a"></path><path d="M1094.2 3100.3L969.4 3095.3L1097.2 3232.2Z" fill="#352f1a" stroke="#352f1a"></path><path d="M1097.2 3232.2L969.4 3095.3L956.4 3228.2Z" fill="#645317" stroke="#645317"></path><path d="M956.4 3228.2L969.4 3095.3L825.7 3108.3Z" fill="#856f0d" stroke="#856f0d"></path><path d="M1522.6 399.7L1512.6 543.5L1653.3 537.5Z" fill="#534719" stroke="#534719"></path><path d="M2063.7 535.5L1925.9 533.5L1926.9 669.4Z" fill="#453b1a" stroke="#453b1a"></path><path d="M1654.3 402.7L1522.6 399.7L1653.3 537.5Z" fill="#645317" stroke="#645317"></path><path d="M2063.7 535.5L1926.9 669.4L2070.7 680.4Z" fill="#645317" stroke="#645317"></path><path d="M2348.2 2969.5L2339.2 2826.6L2207.4 2835.6Z" fill="#4d421a" stroke="#4d421a"></path><path d="M2207.4 2835.6L2339.2 2826.6L2207.4 2705.7Z" fill="#7c6811" stroke="#7c6811"></path><path d="M2197.4 2963.5L2061.7 2838.6L2065.7 2970.5Z" fill="#4d421a" stroke="#4d421a"></path><path d="M1510.6 3380.1L1515.6 3245.2L1381.8 3242.2Z" fill="#5c4e18" stroke="#5c4e18"></path><path d="M1381.8 3242.2L1515.6 3245.2L1385.8 3101.3Z" fill="#453b1a" stroke="#453b1a"></path><path d="M818.7 535.5L679.9 533.5L692.9 677.4Z" fill="#7c6811" stroke="#7c6811"></path><path d="M690.9 406.7L679.9 533.5L818.7 535.5Z" fill="#352f1a" stroke="#352f1a"></path><path d="M1654.3 402.7L1653.3 537.5L1797.1 531.5Z" fill="#645317" stroke="#645317"></path><path d="M2072.7 3103.3L2197.4 2963.5L2065.7 2970.5Z" fill="#645317" stroke="#645317"></path><path d="M1099.2 269.8L1094.2 396.7L1241 408.7Z" fill="#736113" stroke="#736113"></path><path d="M1241 408.7L1094.2 396.7L1094.2 536.5Z" fill="#856f0d" stroke="#856f0d"></path><path d="M416.3 679.4L278.6 811.3L408.3 811.3Z" fill="#3d341a" stroke="#3d341a"></path><path d="M416.3 679.4L548.1 804.3L543.1 666.4Z" fill="#453b1a" stroke="#453b1a"></path><path d="M0 2293L0 2434.9L133.8 2428.9Z" fill="#6c5b16" stroke="#6c5b16"></path><path d="M145.8 2827.6L278.6 2837.6L267.6 2697.7Z" fill="#453b1a" stroke="#453b1a"></path><path d="M267.6 2697.7L278.6 2837.6L420.3 2704.7Z" fill="#736113" stroke="#736113"></path><path d="M145.8 2689.7L267.6 2559.8L128.8 2564.8Z" fill="#7c6811" stroke="#7c6811"></path><path d="M823.7 3241.2L956.4 3228.2L825.7 3108.3Z" fill="#534719" stroke="#534719"></path><path d="M1238 3375.1L1376.8 3373.1L1248 3243.2Z" fill="#856f0d" stroke="#856f0d"></path><path d="M2348.2 803.3L2211.4 809.3L2339.2 942.2Z" fill="#856f0d" stroke="#856f0d"></path><path d="M2211.4 809.3L2204.4 680.4L2064.7 801.3Z" fill="#3d341a" stroke="#3d341a"></path><path d="M128.8 1077.1L0 1205L142.8 1217Z" fill="#3d341a" stroke="#3d341a"></path><path d="M0 1085.1L0 1205L128.8 1077.1Z" fill="#534719" stroke="#534719"></path><path d="M0 2699.7L145.8 2689.7L128.8 2564.8Z" fill="#4d421a" stroke="#4d421a"></path><path d="M418.3 538.5L416.3 679.4L543.1 666.4Z" fill="#645317" stroke="#645317"></path><path d="M2480 813.3L2348.2 803.3L2339.2 942.2Z" fill="#534719" stroke="#534719"></path><path d="M1515.6 3245.2L1661.3 3236.2L1522.6 3098.3Z" fill="#3d341a" stroke="#3d341a"></path><path d="M1934.9 3094.3L2072.7 3103.3L2065.7 2970.5Z" fill="#645317" stroke="#645317"></path><path d="M283.6 2962.5L417.3 2974.5L418.3 2835.6Z" fill="#352f1a" stroke="#352f1a"></path><path d="M685.9 3231.2L823.7 3241.2L825.7 3108.3Z" fill="#453b1a" stroke="#453b1a"></path><path d="M2480 1074.1L2480 951.2L2338.2 1078.1Z" fill="#5c4e18" stroke="#5c4e18"></path><path d="M2339.2 2826.6L2480 2698.7L2335.2 2699.7Z" fill="#3d341a" stroke="#3d341a"></path><path d="M2480 2838.6L2480 2698.7L2339.2 2826.6Z" fill="#4d421a" stroke="#4d421a"></path><path d="M1791.1 397.7L1654.3 402.7L1797.1 531.5Z" fill="#736113" stroke="#736113"></path><path d="M1094.2 396.7L963.4 400.7L1094.2 536.5Z" fill="#856f0d" stroke="#856f0d"></path><path d="M278.6 811.3L139.8 944.2L283.6 935.2Z" fill="#6c5b16" stroke="#6c5b16"></path><path d="M417.3 2974.5L559.1 3095.3L551.1 2958.5Z" fill="#534719" stroke="#534719"></path><path d="M2063.7 3236.2L2072.7 3103.3L1934.9 3094.3Z" fill="#645317" stroke="#645317"></path><path d="M2197.4 2963.5L2348.2 2969.5L2207.4 2835.6Z" fill="#3d341a" stroke="#3d341a"></path><path d="M1661.3 3236.2L1791.1 3234.2L1661.3 3108.3Z" fill="#534719" stroke="#534719"></path><path d="M1793.1 3368.1L1791.1 3234.2L1661.3 3236.2Z" fill="#6c5b16" stroke="#6c5b16"></path><path d="M546.1 405.7L545.1 545.5L679.9 533.5Z" fill="#3d341a" stroke="#3d341a"></path><path d="M679.9 533.5L545.1 545.5L543.1 666.4Z" fill="#3d341a" stroke="#3d341a"></path><path d="M416.3 679.4L282.6 665.4L278.6 811.3Z" fill="#4d421a" stroke="#4d421a"></path><path d="M278.6 811.3L132.8 813.3L139.8 944.2Z" fill="#534719" stroke="#534719"></path><path d="M2204.4 680.4L2063.7 535.5L2070.7 680.4Z" fill="#736113" stroke="#736113"></path><path d="M1931.9 412.7L1791.1 397.7L1797.1 531.5Z" fill="#3d341a" stroke="#3d341a"></path><path d="M2211.4 531.5L2063.7 535.5L2204.4 680.4Z" fill="#736113" stroke="#736113"></path><path d="M685.9 3231.2L825.7 3108.3L692.9 3096.3Z" fill="#6c5b16" stroke="#6c5b16"></path><path d="M1238 3375.1L1248 3243.2L1103.2 3372.1Z" fill="#3d341a" stroke="#3d341a"></path><path d="M1248 3243.2L1376.8 3373.1L1381.8 3242.2Z" fill="#645317" stroke="#645317"></path><path d="M963.4 400.7L817.7 408.7L958.4 541.5Z" fill="#6c5b16" stroke="#6c5b16"></path><path d="M1931.9 412.7L1797.1 531.5L1925.9 533.5Z" fill="#856f0d" stroke="#856f0d"></path><path d="M1507.6 271.8L1378.8 396.7L1522.6 399.7Z" fill="#645317" stroke="#645317"></path><path d="M1507.6 271.8L1368.8 264.8L1378.8 396.7Z" fill="#6c5b16" stroke="#6c5b16"></path><path d="M0 951.2L0 1085.1L128.8 1077.1Z" fill="#352f1a" stroke="#352f1a"></path><path d="M139.8 2959.5L283.6 2962.5L278.6 2837.6Z" fill="#4d421a" stroke="#4d421a"></path><path d="M278.6 2837.6L283.6 2962.5L418.3 2835.6Z" fill="#534719" stroke="#534719"></path><path d="M0 2434.9L0 2569.8L128.8 2564.8Z" fill="#534719" stroke="#534719"></path><path d="M1793.1 3368.1L1927.9 3229.2L1791.1 3234.2Z" fill="#3d341a" stroke="#3d341a"></path><path d="M1791.1 3234.2L1927.9 3229.2L1782.1 3093.3Z" fill="#856f0d" stroke="#856f0d"></path><path d="M417.3 2974.5L408.3 3097.3L559.1 3095.3Z" fill="#4d421a" stroke="#4d421a"></path><path d="M559.1 3095.3L685.9 3231.2L692.9 3096.3Z" fill="#534719" stroke="#534719"></path><path d="M145.8 2827.6L267.6 2697.7L145.8 2689.7Z" fill="#645317" stroke="#645317"></path><path d="M2480 682.4L2340.2 679.4L2348.2 803.3Z" fill="#6c5b16" stroke="#6c5b16"></path><path d="M2348.2 803.3L2340.2 679.4L2211.4 809.3Z" fill="#352f1a" stroke="#352f1a"></path><path d="M0 2699.7L145.8 2827.6L145.8 2689.7Z" fill="#352f1a" stroke="#352f1a"></path><path d="M556.1 3238.2L685.9 3231.2L559.1 3095.3Z" fill="#5c4e18" stroke="#5c4e18"></path><path d="M2074.7 408.7L1931.9 412.7L2063.7 535.5Z" fill="#6c5b16" stroke="#6c5b16"></path><path d="M2063.7 535.5L1931.9 412.7L1925.9 533.5Z" fill="#4d421a" stroke="#4d421a"></path><path d="M2480 951.2L2480 813.3L2339.2 942.2Z" fill="#856f0d" stroke="#856f0d"></path><path d="M2210.4 3099.3L2197.4 2963.5L2072.7 3103.3Z" fill="#453b1a" stroke="#453b1a"></path><path d="M2210.4 3099.3L2348.2 2969.5L2197.4 2963.5Z" fill="#352f1a" stroke="#352f1a"></path><path d="M2348.2 2969.5L2480 2838.6L2339.2 2826.6Z" fill="#856f0d" stroke="#856f0d"></path><path d="M817.7 408.7L690.9 406.7L818.7 535.5Z" fill="#645317" stroke="#645317"></path><path d="M690.9 273.8L690.9 406.7L817.7 408.7Z" fill="#453b1a" stroke="#453b1a"></path><path d="M820.7 268.8L817.7 408.7L963.4 400.7Z" fill="#5c4e18" stroke="#5c4e18"></path><path d="M418.3 538.5L543.1 666.4L545.1 545.5Z" fill="#736113" stroke="#736113"></path><path d="M418.3 538.5L282.6 665.4L416.3 679.4Z" fill="#3d341a" stroke="#3d341a"></path><path d="M139.8 944.2L0 951.2L128.8 1077.1Z" fill="#4d421a" stroke="#4d421a"></path><path d="M1097.2 3232.2L956.4 3364.1L1103.2 3372.1Z" fill="#645317" stroke="#645317"></path><path d="M1248 3243.2L1097.2 3232.2L1103.2 3372.1Z" fill="#4d421a" stroke="#4d421a"></path><path d="M1515.6 3245.2L1648.3 3364.1L1661.3 3236.2Z" fill="#4d421a" stroke="#4d421a"></path><path d="M1097.2 3232.2L956.4 3228.2L956.4 3364.1Z" fill="#645317" stroke="#645317"></path><path d="M144.8 665.4L132.8 813.3L278.6 811.3Z" fill="#352f1a" stroke="#352f1a"></path><path d="M2196.4 3241.2L2210.4 3099.3L2072.7 3103.3Z" fill="#534719" stroke="#534719"></path><path d="M1522.6 399.7L1654.3 402.7L1661.3 268.8Z" fill="#736113" stroke="#736113"></path><path d="M1507.6 271.8L1522.6 399.7L1661.3 268.8Z" fill="#856f0d" stroke="#856f0d"></path><path d="M1378.8 396.7L1368.8 264.8L1241 408.7Z" fill="#534719" stroke="#534719"></path><path d="M1094.2 396.7L970.4 272.8L963.4 400.7Z" fill="#7c6811" stroke="#7c6811"></path><path d="M283.6 2962.5L408.3 3097.3L417.3 2974.5Z" fill="#7c6811" stroke="#7c6811"></path><path d="M274.6 3105.3L408.3 3097.3L283.6 2962.5Z" fill="#7c6811" stroke="#7c6811"></path><path d="M956.4 3364.1L956.4 3228.2L823.7 3241.2Z" fill="#645317" stroke="#645317"></path><path d="M1661.3 268.8L1654.3 402.7L1791.1 397.7Z" fill="#5c4e18" stroke="#5c4e18"></path><path d="M1368.8 264.8L1241 260.8L1241 408.7Z" fill="#352f1a" stroke="#352f1a"></path><path d="M546.1 405.7L418.3 538.5L545.1 545.5Z" fill="#3d341a" stroke="#3d341a"></path><path d="M1241 260.8L1099.2 269.8L1241 408.7Z" fill="#4d421a" stroke="#4d421a"></path><path d="M1506.6 3507L1510.6 3380.1L1376.8 3373.1Z" fill="#645317" stroke="#645317"></path><path d="M1376.8 3373.1L1510.6 3380.1L1381.8 3242.2Z" fill="#7c6811" stroke="#7c6811"></path><path d="M2337.2 546.5L2204.4 680.4L2340.2 679.4Z" fill="#5c4e18" stroke="#5c4e18"></path><path d="M2337.2 546.5L2211.4 531.5L2204.4 680.4Z" fill="#856f0d" stroke="#856f0d"></path><path d="M132.8 813.3L0 951.2L139.8 944.2Z" fill="#6c5b16" stroke="#6c5b16"></path><path d="M1510.6 3380.1L1648.3 3364.1L1515.6 3245.2Z" fill="#534719" stroke="#534719"></path><path d="M1927.9 3229.2L2063.7 3236.2L1934.9 3094.3Z" fill="#352f1a" stroke="#352f1a"></path><path d="M0 2569.8L0 2699.7L128.8 2564.8Z" fill="#6c5b16" stroke="#6c5b16"></path><path d="M145.8 2827.6L139.8 2959.5L278.6 2837.6Z" fill="#6c5b16" stroke="#6c5b16"></path><path d="M819.7 3370.1L823.7 3241.2L694.9 3378.1Z" fill="#534719" stroke="#534719"></path><path d="M819.7 3370.1L956.4 3364.1L823.7 3241.2Z" fill="#645317" stroke="#645317"></path><path d="M820.7 268.8L970.4 272.8L827.7 126.9Z" fill="#534719" stroke="#534719"></path><path d="M1099.2 269.8L970.4 272.8L1094.2 396.7Z" fill="#5c4e18" stroke="#5c4e18"></path><path d="M1789.1 269.8L1661.3 268.8L1791.1 397.7Z" fill="#453b1a" stroke="#453b1a"></path><path d="M1379.8 137.9L1243 139.9L1368.8 264.8Z" fill="#856f0d" stroke="#856f0d"></path><path d="M1368.8 264.8L1243 139.9L1241 260.8Z" fill="#352f1a" stroke="#352f1a"></path><path d="M1789.1 269.8L1791.1 397.7L1920.9 276.8Z" fill="#736113" stroke="#736113"></path><path d="M1930.9 3379.1L2063.7 3236.2L1927.9 3229.2Z" fill="#645317" stroke="#645317"></path><path d="M408.3 3097.3L556.1 3238.2L559.1 3095.3Z" fill="#453b1a" stroke="#453b1a"></path><path d="M2211.4 531.5L2074.7 408.7L2063.7 535.5Z" fill="#352f1a" stroke="#352f1a"></path><path d="M690.9 273.8L546.1 405.7L690.9 406.7Z" fill="#7c6811" stroke="#7c6811"></path><path d="M690.9 406.7L546.1 405.7L679.9 533.5Z" fill="#7c6811" stroke="#7c6811"></path><path d="M276.6 541.5L144.8 665.4L282.6 665.4Z" fill="#4d421a" stroke="#4d421a"></path><path d="M1648.3 3364.1L1793.1 3368.1L1661.3 3236.2Z" fill="#534719" stroke="#534719"></path><path d="M1787.1 3507L1793.1 3368.1L1648.3 3364.1Z" fill="#4d421a" stroke="#4d421a"></path><path d="M694.9 3378.1L823.7 3241.2L685.9 3231.2Z" fill="#736113" stroke="#736113"></path><path d="M1239 3507L1238 3375.1L1100.2 3507Z" fill="#352f1a" stroke="#352f1a"></path><path d="M1239 3507L1371.8 3507L1238 3375.1Z" fill="#4d421a" stroke="#4d421a"></path><path d="M1238 3375.1L1371.8 3507L1376.8 3373.1Z" fill="#6c5b16" stroke="#6c5b16"></path><path d="M1920.9 276.8L1791.1 397.7L1931.9 412.7Z" fill="#6c5b16" stroke="#6c5b16"></path><path d="M1379.8 137.9L1368.8 264.8L1507.6 271.8Z" fill="#352f1a" stroke="#352f1a"></path><path d="M1095.2 135.9L970.4 272.8L1099.2 269.8Z" fill="#736113" stroke="#736113"></path><path d="M970.4 272.8L820.7 268.8L963.4 400.7Z" fill="#7c6811" stroke="#7c6811"></path><path d="M0 2840.6L139.8 2959.5L145.8 2827.6Z" fill="#4d421a" stroke="#4d421a"></path><path d="M408.3 3097.3L407.3 3244.2L556.1 3238.2Z" fill="#352f1a" stroke="#352f1a"></path><path d="M2480 813.3L2480 682.4L2348.2 803.3Z" fill="#6c5b16" stroke="#6c5b16"></path><path d="M2211.4 531.5L2201.4 404.7L2074.7 408.7Z" fill="#736113" stroke="#736113"></path><path d="M2346.2 3095.3L2348.2 2969.5L2210.4 3099.3Z" fill="#453b1a" stroke="#453b1a"></path><path d="M2346.2 3095.3L2480 2968.5L2348.2 2969.5Z" fill="#453b1a" stroke="#453b1a"></path><path d="M2348.2 2969.5L2480 2968.5L2480 2838.6Z" fill="#453b1a" stroke="#453b1a"></path><path d="M2480 545.5L2337.2 546.5L2340.2 679.4Z" fill="#7c6811" stroke="#7c6811"></path><path d="M2345.2 3240.2L2346.2 3095.3L2210.4 3099.3Z" fill="#3d341a" stroke="#3d341a"></path><path d="M282.6 665.4L144.8 665.4L278.6 811.3Z" fill="#3d341a" stroke="#3d341a"></path><path d="M132.8 813.3L0 806.3L0 951.2Z" fill="#352f1a" stroke="#352f1a"></path><path d="M276.6 541.5L282.6 665.4L418.3 538.5Z" fill="#856f0d" stroke="#856f0d"></path><path d="M282.6 396.7L276.6 541.5L418.3 538.5Z" fill="#3d341a" stroke="#3d341a"></path><path d="M139.8 2959.5L274.6 3105.3L283.6 2962.5Z" fill="#736113" stroke="#736113"></path><path d="M556.1 3238.2L694.9 3378.1L685.9 3231.2Z" fill="#534719" stroke="#534719"></path><path d="M0 2699.7L0 2840.6L145.8 2827.6Z" fill="#7c6811" stroke="#7c6811"></path><path d="M139.8 2959.5L130.8 3095.3L274.6 3105.3Z" fill="#7c6811" stroke="#7c6811"></path><path d="M0 665.4L0 806.3L132.8 813.3Z" fill="#4d421a" stroke="#4d421a"></path><path d="M2057.7 270.8L1931.9 412.7L2074.7 408.7Z" fill="#736113" stroke="#736113"></path><path d="M2057.7 270.8L1920.9 276.8L1931.9 412.7Z" fill="#5c4e18" stroke="#5c4e18"></path><path d="M820.7 268.8L690.9 273.8L817.7 408.7Z" fill="#7c6811" stroke="#7c6811"></path><path d="M546.1 405.7L411.3 396.7L418.3 538.5Z" fill="#534719" stroke="#534719"></path><path d="M2068.7 3372.1L2196.4 3241.2L2063.7 3236.2Z" fill="#856f0d" stroke="#856f0d"></path><path d="M2063.7 3236.2L2196.4 3241.2L2072.7 3103.3Z" fill="#4d421a" stroke="#4d421a"></path><path d="M2346.2 3095.3L2480 3101.3L2480 2968.5Z" fill="#352f1a" stroke="#352f1a"></path><path d="M545.1 3377.1L694.9 3378.1L556.1 3238.2Z" fill="#453b1a" stroke="#453b1a"></path><path d="M1238 3375.1L1103.2 3372.1L1100.2 3507Z" fill="#352f1a" stroke="#352f1a"></path><path d="M1787.1 3507L1930.9 3379.1L1793.1 3368.1Z" fill="#4d421a" stroke="#4d421a"></path><path d="M1793.1 3368.1L1930.9 3379.1L1927.9 3229.2Z" fill="#453b1a" stroke="#453b1a"></path><path d="M2350.2 402.7L2201.4 404.7L2211.4 531.5Z" fill="#5c4e18" stroke="#5c4e18"></path><path d="M2350.2 402.7L2211.4 531.5L2337.2 546.5Z" fill="#352f1a" stroke="#352f1a"></path><path d="M1103.2 3372.1L956.4 3507L1100.2 3507Z" fill="#736113" stroke="#736113"></path><path d="M1510.6 3380.1L1647.3 3507L1648.3 3364.1Z" fill="#453b1a" stroke="#453b1a"></path><path d="M271.6 3238.2L407.3 3244.2L274.6 3105.3Z" fill="#856f0d" stroke="#856f0d"></path><path d="M274.6 3105.3L407.3 3244.2L408.3 3097.3Z" fill="#5c4e18" stroke="#5c4e18"></path><path d="M1103.2 3372.1L956.4 3364.1L956.4 3507Z" fill="#7c6811" stroke="#7c6811"></path><path d="M1379.8 137.9L1507.6 271.8L1522.6 142.9Z" fill="#7c6811" stroke="#7c6811"></path><path d="M1241 260.8L1095.2 135.9L1099.2 269.8Z" fill="#856f0d" stroke="#856f0d"></path><path d="M820.7 268.8L685.9 137.9L690.9 273.8Z" fill="#352f1a" stroke="#352f1a"></path><path d="M1507.6 271.8L1661.3 268.8L1522.6 142.9Z" fill="#534719" stroke="#534719"></path><path d="M1522.6 142.9L1661.3 268.8L1657.3 134.9Z" fill="#6c5b16" stroke="#6c5b16"></path><path d="M421.3 268.8L411.3 396.7L546.1 405.7Z" fill="#645317" stroke="#645317"></path><path d="M276.6 541.5L143.8 534.5L144.8 665.4Z" fill="#534719" stroke="#534719"></path><path d="M144.8 665.4L0 665.4L132.8 813.3Z" fill="#453b1a" stroke="#453b1a"></path><path d="M1657.3 134.9L1661.3 268.8L1796.1 138.9Z" fill="#453b1a" stroke="#453b1a"></path><path d="M1371.8 3507L1506.6 3507L1376.8 3373.1Z" fill="#5c4e18" stroke="#5c4e18"></path><path d="M956.4 3507L956.4 3364.1L829.7 3507Z" fill="#453b1a" stroke="#453b1a"></path><path d="M968.4 125.9L1095.2 135.9L1103.2 0Z" fill="#856f0d" stroke="#856f0d"></path><path d="M1243 139.9L1095.2 135.9L1241 260.8Z" fill="#5c4e18" stroke="#5c4e18"></path><path d="M1506.6 3507L1647.3 3507L1510.6 3380.1Z" fill="#352f1a" stroke="#352f1a"></path><path d="M829.7 3507L819.7 3370.1L696.9 3507Z" fill="#534719" stroke="#534719"></path><path d="M829.7 3507L956.4 3364.1L819.7 3370.1Z" fill="#5c4e18" stroke="#5c4e18"></path><path d="M2200.4 273.8L2057.7 270.8L2074.7 408.7Z" fill="#3d341a" stroke="#3d341a"></path><path d="M1796.1 138.9L1661.3 268.8L1789.1 269.8Z" fill="#5c4e18" stroke="#5c4e18"></path><path d="M2073.7 3507L2068.7 3372.1L1930.9 3379.1Z" fill="#4d421a" stroke="#4d421a"></path><path d="M1930.9 3379.1L2068.7 3372.1L2063.7 3236.2Z" fill="#736113" stroke="#736113"></path><path d="M2345.2 3240.2L2480 3101.3L2346.2 3095.3Z" fill="#6c5b16" stroke="#6c5b16"></path><path d="M1796.1 138.9L1789.1 269.8L1920.9 276.8Z" fill="#453b1a" stroke="#453b1a"></path><path d="M1506.6 0L1370.8 0L1379.8 137.9Z" fill="#534719" stroke="#534719"></path><path d="M1238 0L1095.2 135.9L1243 139.9Z" fill="#645317" stroke="#645317"></path><path d="M2345.2 3240.2L2210.4 3099.3L2196.4 3241.2Z" fill="#453b1a" stroke="#453b1a"></path><path d="M2480 682.4L2480 545.5L2340.2 679.4Z" fill="#645317" stroke="#645317"></path><path d="M2201.4 404.7L2200.4 273.8L2074.7 408.7Z" fill="#6c5b16" stroke="#6c5b16"></path><path d="M419.3 3364.1L545.1 3377.1L556.1 3238.2Z" fill="#4d421a" stroke="#4d421a"></path><path d="M1095.2 135.9L968.4 125.9L970.4 272.8Z" fill="#6c5b16" stroke="#6c5b16"></path><path d="M690.9 273.8L556.1 261.8L546.1 405.7Z" fill="#5c4e18" stroke="#5c4e18"></path><path d="M1370.8 0L1243 139.9L1379.8 137.9Z" fill="#736113" stroke="#736113"></path><path d="M685.9 137.9L556.1 261.8L690.9 273.8Z" fill="#352f1a" stroke="#352f1a"></path><path d="M0 2970.5L130.8 3095.3L139.8 2959.5Z" fill="#5c4e18" stroke="#5c4e18"></path><path d="M407.3 3244.2L419.3 3364.1L556.1 3238.2Z" fill="#453b1a" stroke="#453b1a"></path><path d="M282.6 396.7L418.3 538.5L411.3 396.7Z" fill="#856f0d" stroke="#856f0d"></path><path d="M282.6 396.7L143.8 534.5L276.6 541.5Z" fill="#5c4e18" stroke="#5c4e18"></path><path d="M0 2840.6L0 2970.5L139.8 2959.5Z" fill="#453b1a" stroke="#453b1a"></path><path d="M1647.3 3507L1787.1 3507L1648.3 3364.1Z" fill="#534719" stroke="#534719"></path><path d="M0 540.5L0 665.4L144.8 665.4Z" fill="#534719" stroke="#534719"></path><path d="M696.9 3507L819.7 3370.1L694.9 3378.1Z" fill="#856f0d" stroke="#856f0d"></path><path d="M2210.4 3363.1L2345.2 3240.2L2196.4 3241.2Z" fill="#352f1a" stroke="#352f1a"></path><path d="M2210.4 3363.1L2196.4 3241.2L2068.7 3372.1Z" fill="#4d421a" stroke="#4d421a"></path><path d="M1925.9 137.9L1796.1 138.9L1920.9 276.8Z" fill="#856f0d" stroke="#856f0d"></path><path d="M135.8 3232.2L271.6 3238.2L274.6 3105.3Z" fill="#7c6811" stroke="#7c6811"></path><path d="M135.8 3232.2L274.6 3105.3L130.8 3095.3Z" fill="#4d421a" stroke="#4d421a"></path><path d="M2480 545.5L2350.2 402.7L2337.2 546.5Z" fill="#4d421a" stroke="#4d421a"></path><path d="M2057.7 270.8L1925.9 137.9L1920.9 276.8Z" fill="#5c4e18" stroke="#5c4e18"></path><path d="M283.6 277.8L282.6 396.7L411.3 396.7Z" fill="#453b1a" stroke="#453b1a"></path><path d="M143.8 534.5L0 540.5L144.8 665.4Z" fill="#856f0d" stroke="#856f0d"></path><path d="M968.4 125.9L827.7 126.9L970.4 272.8Z" fill="#5c4e18" stroke="#5c4e18"></path><path d="M556.1 261.8L421.3 268.8L546.1 405.7Z" fill="#5c4e18" stroke="#5c4e18"></path><path d="M270.6 3379.1L419.3 3364.1L407.3 3244.2Z" fill="#3d341a" stroke="#3d341a"></path><path d="M551.1 3507L696.9 3507L694.9 3378.1Z" fill="#5c4e18" stroke="#5c4e18"></path><path d="M2200.4 3507L2210.4 3363.1L2068.7 3372.1Z" fill="#4d421a" stroke="#4d421a"></path><path d="M2350.2 402.7L2200.4 273.8L2201.4 404.7Z" fill="#5c4e18" stroke="#5c4e18"></path><path d="M551.1 3507L694.9 3378.1L545.1 3377.1Z" fill="#3d341a" stroke="#3d341a"></path><path d="M544.1 131.9L421.3 268.8L556.1 261.8Z" fill="#3d341a" stroke="#3d341a"></path><path d="M1787.1 3507L1931.9 3507L1930.9 3379.1Z" fill="#4d421a" stroke="#4d421a"></path><path d="M2062.7 135.9L1925.9 137.9L2057.7 270.8Z" fill="#645317" stroke="#645317"></path><path d="M1506.6 0L1522.6 142.9L1655.3 0Z" fill="#856f0d" stroke="#856f0d"></path><path d="M1506.6 0L1379.8 137.9L1522.6 142.9Z" fill="#856f0d" stroke="#856f0d"></path><path d="M827.7 126.9L685.9 137.9L820.7 268.8Z" fill="#645317" stroke="#645317"></path><path d="M1522.6 142.9L1657.3 134.9L1655.3 0Z" fill="#4d421a" stroke="#4d421a"></path><path d="M968.4 125.9L957.4 0L827.7 126.9Z" fill="#5c4e18" stroke="#5c4e18"></path><path d="M827.7 126.9L691.9 0L685.9 137.9Z" fill="#4d421a" stroke="#4d421a"></path><path d="M1370.8 0L1238 0L1243 139.9Z" fill="#645317" stroke="#645317"></path><path d="M2480 545.5L2480 412.7L2350.2 402.7Z" fill="#534719" stroke="#534719"></path><path d="M2350.2 402.7L2342.2 265.8L2200.4 273.8Z" fill="#5c4e18" stroke="#5c4e18"></path><path d="M2480 3378.1L2480 3238.2L2345.2 3240.2Z" fill="#7c6811" stroke="#7c6811"></path><path d="M2345.2 3240.2L2480 3238.2L2480 3101.3Z" fill="#352f1a" stroke="#352f1a"></path><path d="M2336.2 3380.1L2345.2 3240.2L2210.4 3363.1Z" fill="#5c4e18" stroke="#5c4e18"></path><path d="M1655.3 0L1657.3 134.9L1791.1 0Z" fill="#856f0d" stroke="#856f0d"></path><path d="M271.6 3238.2L270.6 3379.1L407.3 3244.2Z" fill="#645317" stroke="#645317"></path><path d="M421.3 3507L551.1 3507L545.1 3377.1Z" fill="#453b1a" stroke="#453b1a"></path><path d="M0 3107.3L135.8 3232.2L130.8 3095.3Z" fill="#645317" stroke="#645317"></path><path d="M0 406.7L0 540.5L143.8 534.5Z" fill="#3d341a" stroke="#3d341a"></path><path d="M136.8 403.7L143.8 534.5L282.6 396.7Z" fill="#534719" stroke="#534719"></path><path d="M0 2970.5L0 3107.3L130.8 3095.3Z" fill="#453b1a" stroke="#453b1a"></path><path d="M1238 0L1103.2 0L1095.2 135.9Z" fill="#534719" stroke="#534719"></path><path d="M283.6 277.8L411.3 396.7L421.3 268.8Z" fill="#6c5b16" stroke="#6c5b16"></path><path d="M130.8 276.8L136.8 403.7L282.6 396.7Z" fill="#4d421a" stroke="#4d421a"></path><path d="M421.3 3507L545.1 3377.1L419.3 3364.1Z" fill="#4d421a" stroke="#4d421a"></path><path d="M2196.4 140.9L2062.7 135.9L2057.7 270.8Z" fill="#856f0d" stroke="#856f0d"></path><path d="M1791.1 0L1657.3 134.9L1796.1 138.9Z" fill="#6c5b16" stroke="#6c5b16"></path><path d="M2196.4 140.9L2057.7 270.8L2200.4 273.8Z" fill="#534719" stroke="#534719"></path><path d="M1931.9 3507L2073.7 3507L1930.9 3379.1Z" fill="#3d341a" stroke="#3d341a"></path><path d="M1791.1 0L1796.1 138.9L1925.9 137.9Z" fill="#645317" stroke="#645317"></path><path d="M415.3 140.9L283.6 277.8L421.3 268.8Z" fill="#7c6811" stroke="#7c6811"></path><path d="M1103.2 0L957.4 0L968.4 125.9Z" fill="#736113" stroke="#736113"></path><path d="M685.9 137.9L544.1 131.9L556.1 261.8Z" fill="#4d421a" stroke="#4d421a"></path><path d="M550.1 0L544.1 131.9L685.9 137.9Z" fill="#3d341a" stroke="#3d341a"></path><path d="M2200.4 3507L2336.2 3380.1L2210.4 3363.1Z" fill="#5c4e18" stroke="#5c4e18"></path><path d="M2480 270.8L2342.2 265.8L2350.2 402.7Z" fill="#736113" stroke="#736113"></path><path d="M145.8 3364.1L271.6 3238.2L135.8 3232.2Z" fill="#4d421a" stroke="#4d421a"></path><path d="M145.8 3364.1L270.6 3379.1L271.6 3238.2Z" fill="#4d421a" stroke="#4d421a"></path><path d="M957.4 0L834.7 0L827.7 126.9Z" fill="#453b1a" stroke="#453b1a"></path><path d="M1932.9 0L1791.1 0L1925.9 137.9Z" fill="#856f0d" stroke="#856f0d"></path><path d="M1932.9 0L1925.9 137.9L2062.7 135.9Z" fill="#4d421a" stroke="#4d421a"></path><path d="M2336.2 138.9L2196.4 140.9L2200.4 273.8Z" fill="#6c5b16" stroke="#6c5b16"></path><path d="M2073.7 3507L2200.4 3507L2068.7 3372.1Z" fill="#352f1a" stroke="#352f1a"></path><path d="M270.6 3379.1L421.3 3507L419.3 3364.1Z" fill="#7c6811" stroke="#7c6811"></path><path d="M409.3 0L415.3 140.9L544.1 131.9Z" fill="#5c4e18" stroke="#5c4e18"></path><path d="M544.1 131.9L415.3 140.9L421.3 268.8Z" fill="#453b1a" stroke="#453b1a"></path><path d="M130.8 276.8L0 406.7L136.8 403.7Z" fill="#5c4e18" stroke="#5c4e18"></path><path d="M834.7 0L691.9 0L827.7 126.9Z" fill="#736113" stroke="#736113"></path><path d="M2062.7 0L1932.9 0L2062.7 135.9Z" fill="#5c4e18" stroke="#5c4e18"></path><path d="M0 3107.3L0 3237.2L135.8 3232.2Z" fill="#856f0d" stroke="#856f0d"></path><path d="M270.6 3379.1L274.6 3507L421.3 3507Z" fill="#645317" stroke="#645317"></path><path d="M136.8 403.7L0 406.7L143.8 534.5Z" fill="#5c4e18" stroke="#5c4e18"></path><path d="M130.8 276.8L282.6 396.7L283.6 277.8Z" fill="#534719" stroke="#534719"></path><path d="M0 3363.1L145.8 3364.1L135.8 3232.2Z" fill="#645317" stroke="#645317"></path><path d="M2480 412.7L2480 270.8L2350.2 402.7Z" fill="#453b1a" stroke="#453b1a"></path><path d="M2342.2 265.8L2336.2 138.9L2200.4 273.8Z" fill="#4d421a" stroke="#4d421a"></path><path d="M2201.4 0L2062.7 0L2062.7 135.9Z" fill="#7c6811" stroke="#7c6811"></path><path d="M2480 3507L2480 3378.1L2336.2 3380.1Z" fill="#856f0d" stroke="#856f0d"></path><path d="M2336.2 3380.1L2480 3378.1L2345.2 3240.2Z" fill="#453b1a" stroke="#453b1a"></path><path d="M282.6 137.9L283.6 277.8L415.3 140.9Z" fill="#736113" stroke="#736113"></path><path d="M141.8 129.9L130.8 276.8L283.6 277.8Z" fill="#3d341a" stroke="#3d341a"></path><path d="M2200.4 3507L2334.2 3507L2336.2 3380.1Z" fill="#736113" stroke="#736113"></path><path d="M2480 126.9L2336.2 138.9L2342.2 265.8Z" fill="#736113" stroke="#736113"></path><path d="M2201.4 0L2062.7 135.9L2196.4 140.9Z" fill="#534719" stroke="#534719"></path><path d="M409.3 0L282.6 137.9L415.3 140.9Z" fill="#3d341a" stroke="#3d341a"></path><path d="M691.9 0L550.1 0L685.9 137.9Z" fill="#534719" stroke="#534719"></path><path d="M135.8 3507L270.6 3379.1L145.8 3364.1Z" fill="#7c6811" stroke="#7c6811"></path><path d="M135.8 3507L274.6 3507L270.6 3379.1Z" fill="#856f0d" stroke="#856f0d"></path><path d="M0 3237.2L0 3363.1L135.8 3232.2Z" fill="#3d341a" stroke="#3d341a"></path><path d="M2337.2 0L2201.4 0L2336.2 138.9Z" fill="#453b1a" stroke="#453b1a"></path><path d="M2336.2 138.9L2201.4 0L2196.4 140.9Z" fill="#5c4e18" stroke="#5c4e18"></path><path d="M550.1 0L409.3 0L544.1 131.9Z" fill="#3d341a" stroke="#3d341a"></path><path d="M0 140.9L0 262.8L130.8 276.8Z" fill="#4d421a" stroke="#4d421a"></path><path d="M130.8 276.8L0 262.8L0 406.7Z" fill="#534719" stroke="#534719"></path><path d="M141.8 129.9L283.6 277.8L282.6 137.9Z" fill="#4d421a" stroke="#4d421a"></path><path d="M2334.2 3507L2480 3507L2336.2 3380.1Z" fill="#4d421a" stroke="#4d421a"></path><path d="M0 3363.1L135.8 3507L145.8 3364.1Z" fill="#3d341a" stroke="#3d341a"></path><path d="M269.6 0L141.8 129.9L282.6 137.9Z" fill="#4d421a" stroke="#4d421a"></path><path d="M2480 270.8L2480 126.9L2342.2 265.8Z" fill="#645317" stroke="#645317"></path><path d="M2480 126.9L2337.2 0L2336.2 138.9Z" fill="#352f1a" stroke="#352f1a"></path><path d="M409.3 0L269.6 0L282.6 137.9Z" fill="#352f1a" stroke="#352f1a"></path><path d="M141.8 129.9L0 140.9L130.8 276.8Z" fill="#7c6811" stroke="#7c6811"></path><path d="M128.8 0L0 140.9L141.8 129.9Z" fill="#4d421a" stroke="#4d421a"></path><path d="M0 3363.1L0 3507L135.8 3507Z" fill="#4d421a" stroke="#4d421a"></path><path d="M2480 126.9L2480 0L2337.2 0Z" fill="#7c6811" stroke="#7c6811"></path><path d="M269.6 0L128.8 0L141.8 129.9Z" fill="#856f0d" stroke="#856f0d"></path><path d="M128.8 0L0 0L0 140.9Z" fill="#453b1a" stroke="#453b1a"></path></g></svg>